<?xml version="1.0" encoding="utf-8"?>
<svg xmlns="http://www.w3.org/2000/svg" xmlns:xlink="http://www.w3.org/1999/xlink" width="600" height="400" viewBox="0 0 2400 1600">
<defs>
  <clipPath id="clip080">
    <rect x="0" y="0" width="2400" height="1600"/>
  </clipPath>
</defs>
<path clip-path="url(#clip080)" d="M0 1600 L2400 1600 L2400 0 L0 0  Z" fill="#ffffff" fill-rule="evenodd" fill-opacity="1"/>
<defs>
  <clipPath id="clip081">
    <rect x="480" y="0" width="1681" height="1600"/>
  </clipPath>
</defs>
<path clip-path="url(#clip080)" d="M210.746 1423.18 L2352.76 1423.18 L2352.76 47.2441 L210.746 47.2441  Z" fill="#ffffff" fill-rule="evenodd" fill-opacity="1"/>
<defs>
  <clipPath id="clip082">
    <rect x="210" y="47" width="2143" height="1377"/>
  </clipPath>
</defs>
<polyline clip-path="url(#clip082)" style="stroke:#000000; stroke-linecap:round; stroke-linejoin:round; stroke-width:2; stroke-opacity:0.1; fill:none" points="210.746,1423.18 210.746,47.2441 "/>
<polyline clip-path="url(#clip082)" style="stroke:#000000; stroke-linecap:round; stroke-linejoin:round; stroke-width:2; stroke-opacity:0.1; fill:none" points="746.248,1423.18 746.248,47.2441 "/>
<polyline clip-path="url(#clip082)" style="stroke:#000000; stroke-linecap:round; stroke-linejoin:round; stroke-width:2; stroke-opacity:0.1; fill:none" points="1281.75,1423.18 1281.75,47.2441 "/>
<polyline clip-path="url(#clip082)" style="stroke:#000000; stroke-linecap:round; stroke-linejoin:round; stroke-width:2; stroke-opacity:0.1; fill:none" points="1817.25,1423.18 1817.25,47.2441 "/>
<polyline clip-path="url(#clip082)" style="stroke:#000000; stroke-linecap:round; stroke-linejoin:round; stroke-width:2; stroke-opacity:0.1; fill:none" points="2352.76,1423.18 2352.76,47.2441 "/>
<polyline clip-path="url(#clip080)" style="stroke:#000000; stroke-linecap:round; stroke-linejoin:round; stroke-width:4; stroke-opacity:1; fill:none" points="210.746,1423.18 2352.76,1423.18 "/>
<polyline clip-path="url(#clip080)" style="stroke:#000000; stroke-linecap:round; stroke-linejoin:round; stroke-width:4; stroke-opacity:1; fill:none" points="210.746,1423.18 210.746,1404.28 "/>
<polyline clip-path="url(#clip080)" style="stroke:#000000; stroke-linecap:round; stroke-linejoin:round; stroke-width:4; stroke-opacity:1; fill:none" points="746.248,1423.18 746.248,1404.28 "/>
<polyline clip-path="url(#clip080)" style="stroke:#000000; stroke-linecap:round; stroke-linejoin:round; stroke-width:4; stroke-opacity:1; fill:none" points="1281.75,1423.18 1281.75,1404.28 "/>
<polyline clip-path="url(#clip080)" style="stroke:#000000; stroke-linecap:round; stroke-linejoin:round; stroke-width:4; stroke-opacity:1; fill:none" points="1817.25,1423.18 1817.25,1404.28 "/>
<polyline clip-path="url(#clip080)" style="stroke:#000000; stroke-linecap:round; stroke-linejoin:round; stroke-width:4; stroke-opacity:1; fill:none" points="2352.76,1423.18 2352.76,1404.28 "/>
<path clip-path="url(#clip080)" d="M157.274 1468.75 L186.95 1468.75 L186.95 1472.69 L157.274 1472.69 L157.274 1468.75 Z" fill="#000000" fill-rule="nonzero" fill-opacity="1" /><path clip-path="url(#clip080)" d="M197.852 1481.64 L205.491 1481.64 L205.491 1455.28 L197.181 1456.95 L197.181 1452.69 L205.445 1451.02 L210.121 1451.02 L210.121 1481.64 L217.76 1481.64 L217.76 1485.58 L197.852 1485.58 L197.852 1481.64 Z" fill="#000000" fill-rule="nonzero" fill-opacity="1" /><path clip-path="url(#clip080)" d="M227.204 1479.7 L232.088 1479.7 L232.088 1485.58 L227.204 1485.58 L227.204 1479.7 Z" fill="#000000" fill-rule="nonzero" fill-opacity="1" /><path clip-path="url(#clip080)" d="M252.273 1454.1 Q248.662 1454.1 246.834 1457.66 Q245.028 1461.2 245.028 1468.33 Q245.028 1475.44 246.834 1479.01 Q248.662 1482.55 252.273 1482.55 Q255.908 1482.55 257.713 1479.01 Q259.542 1475.44 259.542 1468.33 Q259.542 1461.2 257.713 1457.66 Q255.908 1454.1 252.273 1454.1 M252.273 1450.39 Q258.084 1450.39 261.139 1455 Q264.218 1459.58 264.218 1468.33 Q264.218 1477.06 261.139 1481.67 Q258.084 1486.25 252.273 1486.25 Q246.463 1486.25 243.385 1481.67 Q240.329 1477.06 240.329 1468.33 Q240.329 1459.58 243.385 1455 Q246.463 1450.39 252.273 1450.39 Z" fill="#000000" fill-rule="nonzero" fill-opacity="1" /><path clip-path="url(#clip080)" d="M693.274 1468.75 L722.95 1468.75 L722.95 1472.69 L693.274 1472.69 L693.274 1468.75 Z" fill="#000000" fill-rule="nonzero" fill-opacity="1" /><path clip-path="url(#clip080)" d="M743.042 1454.1 Q739.431 1454.1 737.603 1457.66 Q735.797 1461.2 735.797 1468.33 Q735.797 1475.44 737.603 1479.01 Q739.431 1482.55 743.042 1482.55 Q746.677 1482.55 748.482 1479.01 Q750.311 1475.44 750.311 1468.33 Q750.311 1461.2 748.482 1457.66 Q746.677 1454.1 743.042 1454.1 M743.042 1450.39 Q748.853 1450.39 751.908 1455 Q754.987 1459.58 754.987 1468.33 Q754.987 1477.06 751.908 1481.67 Q748.853 1486.25 743.042 1486.25 Q737.232 1486.25 734.154 1481.67 Q731.098 1477.06 731.098 1468.33 Q731.098 1459.58 734.154 1455 Q737.232 1450.39 743.042 1450.39 Z" fill="#000000" fill-rule="nonzero" fill-opacity="1" /><path clip-path="url(#clip080)" d="M763.204 1479.7 L768.089 1479.7 L768.089 1485.58 L763.204 1485.58 L763.204 1479.7 Z" fill="#000000" fill-rule="nonzero" fill-opacity="1" /><path clip-path="url(#clip080)" d="M778.32 1451.02 L796.676 1451.02 L796.676 1454.96 L782.602 1454.96 L782.602 1463.43 Q783.621 1463.08 784.639 1462.92 Q785.658 1462.73 786.676 1462.73 Q792.463 1462.73 795.843 1465.9 Q799.223 1469.08 799.223 1474.49 Q799.223 1480.07 795.75 1483.17 Q792.278 1486.25 785.959 1486.25 Q783.783 1486.25 781.514 1485.88 Q779.269 1485.51 776.862 1484.77 L776.862 1480.07 Q778.945 1481.2 781.167 1481.76 Q783.389 1482.32 785.866 1482.32 Q789.871 1482.32 792.209 1480.21 Q794.547 1478.1 794.547 1474.49 Q794.547 1470.88 792.209 1468.77 Q789.871 1466.67 785.866 1466.67 Q783.991 1466.67 782.116 1467.08 Q780.264 1467.5 778.32 1468.38 L778.32 1451.02 Z" fill="#000000" fill-rule="nonzero" fill-opacity="1" /><path clip-path="url(#clip080)" d="M1259.14 1454.1 Q1255.52 1454.1 1253.7 1457.66 Q1251.89 1461.2 1251.89 1468.33 Q1251.89 1475.44 1253.7 1479.01 Q1255.52 1482.55 1259.14 1482.55 Q1262.77 1482.55 1264.58 1479.01 Q1266.4 1475.44 1266.4 1468.33 Q1266.4 1461.2 1264.58 1457.66 Q1262.77 1454.1 1259.14 1454.1 M1259.14 1450.39 Q1264.95 1450.39 1268 1455 Q1271.08 1459.58 1271.08 1468.33 Q1271.08 1477.06 1268 1481.67 Q1264.95 1486.25 1259.14 1486.25 Q1253.33 1486.25 1250.25 1481.67 Q1247.19 1477.06 1247.19 1468.33 Q1247.19 1459.58 1250.25 1455 Q1253.33 1450.39 1259.14 1450.39 Z" fill="#000000" fill-rule="nonzero" fill-opacity="1" /><path clip-path="url(#clip080)" d="M1279.3 1479.7 L1284.18 1479.7 L1284.18 1485.58 L1279.3 1485.58 L1279.3 1479.7 Z" fill="#000000" fill-rule="nonzero" fill-opacity="1" /><path clip-path="url(#clip080)" d="M1304.37 1454.1 Q1300.76 1454.1 1298.93 1457.66 Q1297.12 1461.2 1297.12 1468.33 Q1297.12 1475.44 1298.93 1479.01 Q1300.76 1482.55 1304.37 1482.55 Q1308 1482.55 1309.81 1479.01 Q1311.64 1475.44 1311.64 1468.33 Q1311.64 1461.2 1309.81 1457.66 Q1308 1454.1 1304.37 1454.1 M1304.37 1450.39 Q1310.18 1450.39 1313.23 1455 Q1316.31 1459.58 1316.31 1468.33 Q1316.31 1477.06 1313.23 1481.67 Q1310.18 1486.25 1304.37 1486.25 Q1298.56 1486.25 1295.48 1481.67 Q1292.42 1477.06 1292.42 1468.33 Q1292.42 1459.58 1295.48 1455 Q1298.56 1450.39 1304.37 1450.39 Z" fill="#000000" fill-rule="nonzero" fill-opacity="1" /><path clip-path="url(#clip080)" d="M1795.14 1454.1 Q1791.52 1454.1 1789.7 1457.66 Q1787.89 1461.2 1787.89 1468.33 Q1787.89 1475.44 1789.7 1479.01 Q1791.52 1482.55 1795.14 1482.55 Q1798.77 1482.55 1800.58 1479.01 Q1802.4 1475.44 1802.4 1468.33 Q1802.4 1461.2 1800.58 1457.66 Q1798.77 1454.1 1795.14 1454.1 M1795.14 1450.39 Q1800.95 1450.39 1804 1455 Q1807.08 1459.58 1807.08 1468.33 Q1807.08 1477.06 1804 1481.67 Q1800.95 1486.25 1795.14 1486.25 Q1789.33 1486.25 1786.25 1481.67 Q1783.19 1477.06 1783.19 1468.33 Q1783.19 1459.58 1786.25 1455 Q1789.33 1450.39 1795.14 1450.39 Z" fill="#000000" fill-rule="nonzero" fill-opacity="1" /><path clip-path="url(#clip080)" d="M1815.3 1479.7 L1820.18 1479.7 L1820.18 1485.58 L1815.3 1485.58 L1815.3 1479.7 Z" fill="#000000" fill-rule="nonzero" fill-opacity="1" /><path clip-path="url(#clip080)" d="M1830.41 1451.02 L1848.77 1451.02 L1848.77 1454.96 L1834.7 1454.96 L1834.7 1463.43 Q1835.71 1463.08 1836.73 1462.92 Q1837.75 1462.73 1838.77 1462.73 Q1844.56 1462.73 1847.94 1465.9 Q1851.32 1469.08 1851.32 1474.49 Q1851.32 1480.07 1847.84 1483.17 Q1844.37 1486.25 1838.05 1486.25 Q1835.88 1486.25 1833.61 1485.88 Q1831.36 1485.51 1828.95 1484.77 L1828.95 1480.07 Q1831.04 1481.2 1833.26 1481.76 Q1835.48 1482.32 1837.96 1482.32 Q1841.96 1482.32 1844.3 1480.21 Q1846.64 1478.1 1846.64 1474.49 Q1846.64 1470.88 1844.3 1468.77 Q1841.96 1466.67 1837.96 1466.67 Q1836.08 1466.67 1834.21 1467.08 Q1832.36 1467.5 1830.41 1468.38 L1830.41 1451.02 Z" fill="#000000" fill-rule="nonzero" fill-opacity="1" /><path clip-path="url(#clip080)" d="M2319.91 1481.64 L2327.55 1481.64 L2327.55 1455.28 L2319.24 1456.95 L2319.24 1452.69 L2327.5 1451.02 L2332.18 1451.02 L2332.18 1481.64 L2339.82 1481.64 L2339.82 1485.58 L2319.91 1485.58 L2319.91 1481.64 Z" fill="#000000" fill-rule="nonzero" fill-opacity="1" /><path clip-path="url(#clip080)" d="M2349.26 1479.7 L2354.14 1479.7 L2354.14 1485.58 L2349.26 1485.58 L2349.26 1479.7 Z" fill="#000000" fill-rule="nonzero" fill-opacity="1" /><path clip-path="url(#clip080)" d="M2374.33 1454.1 Q2370.72 1454.1 2368.89 1457.66 Q2367.08 1461.2 2367.08 1468.33 Q2367.08 1475.44 2368.89 1479.01 Q2370.72 1482.55 2374.33 1482.55 Q2377.96 1482.55 2379.77 1479.01 Q2381.6 1475.44 2381.6 1468.33 Q2381.6 1461.2 2379.77 1457.66 Q2377.96 1454.1 2374.33 1454.1 M2374.33 1450.39 Q2380.14 1450.39 2383.2 1455 Q2386.27 1459.58 2386.27 1468.33 Q2386.27 1477.06 2383.2 1481.67 Q2380.14 1486.25 2374.33 1486.25 Q2368.52 1486.25 2365.44 1481.67 Q2362.39 1477.06 2362.39 1468.33 Q2362.39 1459.58 2365.44 1455 Q2368.52 1450.39 2374.33 1450.39 Z" fill="#000000" fill-rule="nonzero" fill-opacity="1" /><path clip-path="url(#clip080)" d="M1298.37 1532.4 L1285.47 1549.74 L1299.03 1568.04 L1292.13 1568.04 L1281.75 1554.04 L1271.37 1568.04 L1264.47 1568.04 L1278.31 1549.39 L1265.65 1532.4 L1272.55 1532.4 L1282.01 1545.1 L1291.46 1532.4 L1298.37 1532.4 Z" fill="#000000" fill-rule="nonzero" fill-opacity="1" /><polyline clip-path="url(#clip082)" style="stroke:#000000; stroke-linecap:round; stroke-linejoin:round; stroke-width:2; stroke-opacity:0.1; fill:none" points="210.746,1363.18 2352.76,1363.18 "/>
<polyline clip-path="url(#clip082)" style="stroke:#000000; stroke-linecap:round; stroke-linejoin:round; stroke-width:2; stroke-opacity:0.1; fill:none" points="210.746,1114.69 2352.76,1114.69 "/>
<polyline clip-path="url(#clip082)" style="stroke:#000000; stroke-linecap:round; stroke-linejoin:round; stroke-width:2; stroke-opacity:0.1; fill:none" points="210.746,866.2 2352.76,866.2 "/>
<polyline clip-path="url(#clip082)" style="stroke:#000000; stroke-linecap:round; stroke-linejoin:round; stroke-width:2; stroke-opacity:0.1; fill:none" points="210.746,617.713 2352.76,617.713 "/>
<polyline clip-path="url(#clip082)" style="stroke:#000000; stroke-linecap:round; stroke-linejoin:round; stroke-width:2; stroke-opacity:0.1; fill:none" points="210.746,369.225 2352.76,369.225 "/>
<polyline clip-path="url(#clip082)" style="stroke:#000000; stroke-linecap:round; stroke-linejoin:round; stroke-width:2; stroke-opacity:0.1; fill:none" points="210.746,120.738 2352.76,120.738 "/>
<polyline clip-path="url(#clip080)" style="stroke:#000000; stroke-linecap:round; stroke-linejoin:round; stroke-width:4; stroke-opacity:1; fill:none" points="210.746,1423.18 210.746,47.2441 "/>
<polyline clip-path="url(#clip080)" style="stroke:#000000; stroke-linecap:round; stroke-linejoin:round; stroke-width:4; stroke-opacity:1; fill:none" points="210.746,1363.18 229.644,1363.18 "/>
<polyline clip-path="url(#clip080)" style="stroke:#000000; stroke-linecap:round; stroke-linejoin:round; stroke-width:4; stroke-opacity:1; fill:none" points="210.746,1114.69 229.644,1114.69 "/>
<polyline clip-path="url(#clip080)" style="stroke:#000000; stroke-linecap:round; stroke-linejoin:round; stroke-width:4; stroke-opacity:1; fill:none" points="210.746,866.2 229.644,866.2 "/>
<polyline clip-path="url(#clip080)" style="stroke:#000000; stroke-linecap:round; stroke-linejoin:round; stroke-width:4; stroke-opacity:1; fill:none" points="210.746,617.713 229.644,617.713 "/>
<polyline clip-path="url(#clip080)" style="stroke:#000000; stroke-linecap:round; stroke-linejoin:round; stroke-width:4; stroke-opacity:1; fill:none" points="210.746,369.225 229.644,369.225 "/>
<polyline clip-path="url(#clip080)" style="stroke:#000000; stroke-linecap:round; stroke-linejoin:round; stroke-width:4; stroke-opacity:1; fill:none" points="210.746,120.738 229.644,120.738 "/>
<path clip-path="url(#clip080)" d="M114.631 1363.63 L144.306 1363.63 L144.306 1367.56 L114.631 1367.56 L114.631 1363.63 Z" fill="#000000" fill-rule="nonzero" fill-opacity="1" /><path clip-path="url(#clip080)" d="M158.427 1376.52 L174.746 1376.52 L174.746 1380.46 L152.802 1380.46 L152.802 1376.52 Q155.464 1373.77 160.047 1369.14 Q164.653 1364.48 165.834 1363.14 Q168.079 1360.62 168.959 1358.88 Q169.862 1357.12 169.862 1355.43 Q169.862 1352.68 167.917 1350.94 Q165.996 1349.21 162.894 1349.21 Q160.695 1349.21 158.241 1349.97 Q155.811 1350.73 153.033 1352.28 L153.033 1347.56 Q155.857 1346.43 158.311 1345.85 Q160.765 1345.27 162.802 1345.27 Q168.172 1345.27 171.366 1347.96 Q174.561 1350.64 174.561 1355.13 Q174.561 1357.26 173.751 1359.18 Q172.964 1361.08 170.857 1363.67 Q170.278 1364.34 167.177 1367.56 Q164.075 1370.76 158.427 1376.52 Z" fill="#000000" fill-rule="nonzero" fill-opacity="1" /><path clip-path="url(#clip080)" d="M114.26 1115.14 L143.936 1115.14 L143.936 1119.07 L114.26 1119.07 L114.26 1115.14 Z" fill="#000000" fill-rule="nonzero" fill-opacity="1" /><path clip-path="url(#clip080)" d="M154.839 1128.03 L162.477 1128.03 L162.477 1101.67 L154.167 1103.33 L154.167 1099.07 L162.431 1097.41 L167.107 1097.41 L167.107 1128.03 L174.746 1128.03 L174.746 1131.97 L154.839 1131.97 L154.839 1128.03 Z" fill="#000000" fill-rule="nonzero" fill-opacity="1" /><path clip-path="url(#clip080)" d="M162.802 851.999 Q159.19 851.999 157.362 855.564 Q155.556 859.106 155.556 866.235 Q155.556 873.342 157.362 876.906 Q159.19 880.448 162.802 880.448 Q166.436 880.448 168.241 876.906 Q170.07 873.342 170.07 866.235 Q170.07 859.106 168.241 855.564 Q166.436 851.999 162.802 851.999 M162.802 848.295 Q168.612 848.295 171.667 852.902 Q174.746 857.485 174.746 866.235 Q174.746 874.962 171.667 879.568 Q168.612 884.152 162.802 884.152 Q156.991 884.152 153.913 879.568 Q150.857 874.962 150.857 866.235 Q150.857 857.485 153.913 852.902 Q156.991 848.295 162.802 848.295 Z" fill="#000000" fill-rule="nonzero" fill-opacity="1" /><path clip-path="url(#clip080)" d="M154.839 631.058 L162.477 631.058 L162.477 604.692 L154.167 606.359 L154.167 602.1 L162.431 600.433 L167.107 600.433 L167.107 631.058 L174.746 631.058 L174.746 634.993 L154.839 634.993 L154.839 631.058 Z" fill="#000000" fill-rule="nonzero" fill-opacity="1" /><path clip-path="url(#clip080)" d="M158.427 382.57 L174.746 382.57 L174.746 386.505 L152.802 386.505 L152.802 382.57 Q155.464 379.816 160.047 375.186 Q164.653 370.533 165.834 369.191 Q168.079 366.667 168.959 364.931 Q169.862 363.172 169.862 361.482 Q169.862 358.728 167.917 356.992 Q165.996 355.256 162.894 355.256 Q160.695 355.256 158.241 356.019 Q155.811 356.783 153.033 358.334 L153.033 353.612 Q155.857 352.478 158.311 351.899 Q160.765 351.32 162.802 351.32 Q168.172 351.32 171.366 354.006 Q174.561 356.691 174.561 361.181 Q174.561 363.311 173.751 365.232 Q172.964 367.13 170.857 369.723 Q170.278 370.394 167.177 373.612 Q164.075 376.806 158.427 382.57 Z" fill="#000000" fill-rule="nonzero" fill-opacity="1" /><path clip-path="url(#clip080)" d="M167.616 119.384 Q170.973 120.101 172.848 122.37 Q174.746 124.638 174.746 127.972 Q174.746 133.087 171.227 135.888 Q167.709 138.689 161.227 138.689 Q159.052 138.689 156.737 138.249 Q154.445 137.833 151.991 136.976 L151.991 132.462 Q153.936 133.597 156.251 134.175 Q158.565 134.754 161.089 134.754 Q165.487 134.754 167.778 133.018 Q170.093 131.282 170.093 127.972 Q170.093 124.916 167.94 123.203 Q165.811 121.467 161.991 121.467 L157.964 121.467 L157.964 117.624 L162.177 117.624 Q165.626 117.624 167.454 116.259 Q169.283 114.87 169.283 112.277 Q169.283 109.615 167.385 108.203 Q165.51 106.768 161.991 106.768 Q160.07 106.768 157.871 107.185 Q155.672 107.601 153.033 108.481 L153.033 104.314 Q155.695 103.574 158.01 103.203 Q160.348 102.833 162.408 102.833 Q167.732 102.833 170.834 105.263 Q173.936 107.671 173.936 111.791 Q173.936 114.661 172.292 116.652 Q170.649 118.62 167.616 119.384 Z" fill="#000000" fill-rule="nonzero" fill-opacity="1" /><path clip-path="url(#clip080)" d="M14.479 785.055 L27.6241 785.055 Q27.6241 778.722 32.4939 774.488 Q37.4592 770.128 46.212 770.128 Q54.9649 770.128 59.9301 774.488 Q64.7999 778.722 64.7999 785.055 L77.5631 785.055 L77.5631 790.88 L64.7999 790.88 Q64.7999 797.214 59.9301 801.479 Q54.9649 805.808 46.212 805.808 Q37.4592 805.808 32.4939 801.479 Q27.6241 797.214 27.6241 790.88 L14.479 790.88 L14.479 785.055 M59.58 785.055 Q59.58 781.459 56.3017 779.008 Q52.6414 776.334 46.212 776.303 Q39.8463 776.271 36.1224 779.008 Q32.844 781.459 32.844 785.055 L59.58 785.055 M59.58 790.88 L32.844 790.88 Q32.844 794.477 36.1224 796.896 Q39.8463 799.665 46.212 799.633 Q52.6414 799.601 56.3017 796.896 Q59.58 794.477 59.58 790.88 Z" fill="#000000" fill-rule="nonzero" fill-opacity="1" /><path clip-path="url(#clip080)" d="M16.4842 754.691 L34.149 754.691 L34.149 760.102 L16.4842 760.102 L16.4842 754.691 Z" fill="#000000" fill-rule="nonzero" fill-opacity="1" /><path clip-path="url(#clip080)" d="M14.5426 728.242 Q21.8632 732.507 29.0246 734.575 Q36.186 736.644 43.5384 736.644 Q50.8908 736.644 58.1159 734.575 Q65.3091 732.475 72.5979 728.242 L72.5979 733.334 Q65.1182 738.108 57.8931 740.496 Q50.668 742.851 43.5384 742.851 Q36.4406 742.851 29.2474 740.496 Q22.0542 738.14 14.5426 733.334 L14.5426 728.242 Z" fill="#000000" fill-rule="nonzero" fill-opacity="1" /><path clip-path="url(#clip080)" d="M28.3562 687.246 L45.7028 700.137 L64.0042 686.578 L64.0042 693.485 L49.9996 703.861 L64.0042 714.237 L64.0042 721.144 L45.3526 707.298 L28.3562 719.966 L28.3562 713.059 L41.0558 703.606 L28.3562 694.153 L28.3562 687.246 Z" fill="#000000" fill-rule="nonzero" fill-opacity="1" /><path clip-path="url(#clip080)" d="M14.5426 679.226 L14.5426 674.133 Q22.0542 669.359 29.2474 667.003 Q36.4406 664.616 43.5384 664.616 Q50.668 664.616 57.8931 667.003 Q65.1182 669.359 72.5979 674.133 L72.5979 679.226 Q65.3091 674.992 58.1159 672.924 Q50.8908 670.823 43.5384 670.823 Q36.186 670.823 29.0246 672.924 Q21.8632 674.992 14.5426 679.226 Z" fill="#000000" fill-rule="nonzero" fill-opacity="1" /><polyline clip-path="url(#clip082)" style="stroke:#009af9; stroke-linecap:round; stroke-linejoin:round; stroke-width:4; stroke-opacity:1; fill:none" points="210.746,757.806 232.382,863.407 254.019,969.009 275.655,1074.61 297.292,1118.11 318.928,1155.18 340.565,1192.25 362.201,1230.78 383.838,1269.65 405.474,1308.52 427.111,1332.85 448.747,1351.49 470.384,1370.13 492.02,1378.81 513.656,1381.52 535.293,1384.24 556.929,1377.89 578.566,1363.55 600.202,1349.21 621.839,1328.22 643.475,1298.7 665.112,1269.18 686.748,1235.28 708.385,1193.04 730.021,1150.79 751.658,1106.23 773.294,1054.7 794.93,1003.17 816.567,950.817 838.203,894.003 859.84,837.189 881.476,780.314 903.113,722.526 924.749,664.738 946.386,606.95 968.022,552.393 989.659,497.94 1011.3,443.486 1032.93,395.461 1054.57,348.354 1076.2,301.247 1097.84,262.567 1119.48,226.246 1141.11,189.926 1162.75,162.833 1184.39,139.934 1206.02,117.035 1227.66,103.089 1249.3,95.268 1270.93,87.447 1292.57,87.447 1314.21,95.268 1335.84,103.089 1357.48,117.035 1379.12,139.934 1400.75,162.833 1422.39,189.926 1444.02,226.246 1465.66,262.567 1487.3,301.247 1508.93,348.354 1530.57,395.461 1552.21,443.486 1573.84,497.94 1595.48,552.393 1617.12,606.95 1638.75,664.738 1660.39,722.526 1682.03,780.314 1703.66,837.189 1725.3,894.003 1746.93,950.817 1768.57,1003.17 1790.21,1054.7 1811.84,1106.23 1833.48,1150.79 1855.12,1193.04 1876.75,1235.28 1898.39,1269.18 1920.03,1298.7 1941.66,1328.22 1963.3,1349.21 1984.94,1363.55 2006.57,1377.89 2028.21,1384.24 2049.85,1381.52 2071.48,1378.81 2093.12,1370.13 2114.75,1351.49 2136.39,1332.85 2158.03,1308.52 2179.66,1269.65 2201.3,1230.78 2222.94,1192.25 2244.57,1155.18 2266.21,1118.11 2287.85,1074.61 2309.48,969.009 2331.12,863.407 2352.76,757.806 "/>
<polyline clip-path="url(#clip082)" style="stroke:#e26f46; stroke-linecap:round; stroke-linejoin:round; stroke-width:4; stroke-opacity:1; fill:none" points="210.746,866.2 232.382,928.244 254.019,987.883 275.655,1044.65 297.292,1098.12 318.928,1147.87 340.565,1193.56 362.201,1234.85 383.838,1271.46 405.474,1303.13 427.111,1329.67 448.747,1350.91 470.384,1366.74 492.02,1377.08 513.656,1381.89 535.293,1381.21 556.929,1375.06 578.566,1363.56 600.202,1346.85 621.839,1325.08 643.475,1298.49 665.112,1267.31 686.748,1231.82 708.385,1192.35 730.021,1149.22 751.658,1102.8 773.294,1053.47 794.93,1001.66 816.567,947.763 838.203,892.233 859.84,835.51 881.476,778.045 903.113,720.294 924.749,662.711 946.386,605.747 968.022,549.846 989.659,495.443 1011.3,442.959 1032.93,392.798 1054.57,345.347 1076.2,300.969 1097.84,260.005 1119.48,222.767 1141.11,189.539 1162.75,160.575 1184.39,136.094 1206.02,116.283 1227.66,101.292 1249.3,91.2337 1270.93,86.1857 1292.57,86.1857 1314.21,91.2337 1335.84,101.292 1357.48,116.283 1379.12,136.094 1400.75,160.575 1422.39,189.539 1444.02,222.767 1465.66,260.005 1487.3,300.969 1508.93,345.347 1530.57,392.798 1552.21,442.959 1573.84,495.443 1595.48,549.846 1617.12,605.747 1638.75,662.711 1660.39,720.294 1682.03,778.045 1703.66,835.51 1725.3,892.233 1746.93,947.763 1768.57,1001.66 1790.21,1053.47 1811.84,1102.8 1833.48,1149.22 1855.12,1192.35 1876.75,1231.82 1898.39,1267.31 1920.03,1298.49 1941.66,1325.08 1963.3,1346.85 1984.94,1363.56 2006.57,1375.06 2028.21,1381.21 2049.85,1381.89 2071.48,1377.08 2093.12,1366.74 2114.75,1350.91 2136.39,1329.67 2158.03,1303.13 2179.66,1271.46 2201.3,1234.85 2222.94,1193.56 2244.57,1147.87 2266.21,1098.12 2287.85,1044.65 2309.48,987.883 2331.12,928.244 2352.76,866.2 "/>
<path clip-path="url(#clip080)" d="M1829.91 248.629 L2281.36 248.629 L2281.36 93.1086 L1829.91 93.1086  Z" fill="#ffffff" fill-rule="evenodd" fill-opacity="1"/>
<polyline clip-path="url(#clip080)" style="stroke:#000000; stroke-linecap:round; stroke-linejoin:round; stroke-width:4; stroke-opacity:1; fill:none" points="1829.91,248.629 2281.36,248.629 2281.36,93.1086 1829.91,93.1086 1829.91,248.629 "/>
<polyline clip-path="url(#clip080)" style="stroke:#009af9; stroke-linecap:round; stroke-linejoin:round; stroke-width:4; stroke-opacity:1; fill:none" points="1853.71,144.949 1996.51,144.949 "/>
<path clip-path="url(#clip080)" d="M2024.99 131.511 L2024.99 158.386 L2030.64 158.386 Q2037.79 158.386 2041.1 155.145 Q2044.43 151.905 2044.43 144.914 Q2044.43 137.969 2041.1 134.752 Q2037.79 131.511 2030.64 131.511 L2024.99 131.511 M2020.31 127.669 L2029.92 127.669 Q2039.96 127.669 2044.66 131.858 Q2049.36 136.025 2049.36 144.914 Q2049.36 153.849 2044.64 158.039 Q2039.92 162.229 2029.92 162.229 L2020.31 162.229 L2020.31 127.669 Z" fill="#000000" fill-rule="nonzero" fill-opacity="1" /><path clip-path="url(#clip080)" d="M2078.81 148.201 L2078.81 150.284 L2059.22 150.284 Q2059.5 154.682 2061.86 156.997 Q2064.25 159.289 2068.48 159.289 Q2070.94 159.289 2073.23 158.687 Q2075.54 158.085 2077.81 156.881 L2077.81 160.909 Q2075.52 161.881 2073.11 162.391 Q2070.7 162.9 2068.23 162.9 Q2062.02 162.9 2058.39 159.289 Q2054.78 155.678 2054.78 149.52 Q2054.78 143.155 2058.2 139.428 Q2061.65 135.678 2067.49 135.678 Q2072.72 135.678 2075.75 139.057 Q2078.81 142.414 2078.81 148.201 M2074.55 146.951 Q2074.5 143.456 2072.58 141.372 Q2070.68 139.289 2067.53 139.289 Q2063.97 139.289 2061.82 141.303 Q2059.69 143.317 2059.36 146.974 L2074.55 146.951 Z" fill="#000000" fill-rule="nonzero" fill-opacity="1" /><path clip-path="url(#clip080)" d="M2100.82 140.284 Q2100.1 139.868 2099.25 139.682 Q2098.41 139.474 2097.39 139.474 Q2093.78 139.474 2091.84 141.835 Q2089.92 144.173 2089.92 148.571 L2089.92 162.229 L2085.64 162.229 L2085.64 136.303 L2089.92 136.303 L2089.92 140.331 Q2091.26 137.969 2093.41 136.835 Q2095.57 135.678 2098.64 135.678 Q2099.08 135.678 2099.62 135.747 Q2100.15 135.794 2100.8 135.909 L2100.82 140.284 Z" fill="#000000" fill-rule="nonzero" fill-opacity="1" /><path clip-path="url(#clip080)" d="M2105.29 136.303 L2109.55 136.303 L2109.55 162.229 L2105.29 162.229 L2105.29 136.303 M2105.29 126.21 L2109.55 126.21 L2109.55 131.604 L2105.29 131.604 L2105.29 126.21 Z" fill="#000000" fill-rule="nonzero" fill-opacity="1" /><path clip-path="url(#clip080)" d="M2115.4 136.303 L2119.92 136.303 L2128.02 158.062 L2136.12 136.303 L2140.63 136.303 L2130.91 162.229 L2125.13 162.229 L2115.4 136.303 Z" fill="#000000" fill-rule="nonzero" fill-opacity="1" /><path clip-path="url(#clip080)" d="M2158.3 149.196 Q2153.13 149.196 2151.14 150.377 Q2149.15 151.557 2149.15 154.405 Q2149.15 156.673 2150.63 158.016 Q2152.14 159.335 2154.71 159.335 Q2158.25 159.335 2160.38 156.835 Q2162.53 154.312 2162.53 150.145 L2162.53 149.196 L2158.3 149.196 M2166.79 147.437 L2166.79 162.229 L2162.53 162.229 L2162.53 158.293 Q2161.07 160.655 2158.9 161.789 Q2156.72 162.9 2153.57 162.9 Q2149.59 162.9 2147.23 160.678 Q2144.89 158.432 2144.89 154.682 Q2144.89 150.307 2147.81 148.085 Q2150.75 145.863 2156.56 145.863 L2162.53 145.863 L2162.53 145.446 Q2162.53 142.507 2160.59 140.909 Q2158.67 139.289 2155.17 139.289 Q2152.95 139.289 2150.84 139.821 Q2148.74 140.354 2146.79 141.419 L2146.79 137.483 Q2149.13 136.581 2151.33 136.141 Q2153.53 135.678 2155.61 135.678 Q2161.24 135.678 2164.01 138.594 Q2166.79 141.511 2166.79 147.437 Z" fill="#000000" fill-rule="nonzero" fill-opacity="1" /><path clip-path="url(#clip080)" d="M2179.78 128.942 L2179.78 136.303 L2188.55 136.303 L2188.55 139.613 L2179.78 139.613 L2179.78 153.687 Q2179.78 156.858 2180.63 157.761 Q2181.51 158.664 2184.18 158.664 L2188.55 158.664 L2188.55 162.229 L2184.18 162.229 Q2179.25 162.229 2177.37 160.4 Q2175.5 158.548 2175.5 153.687 L2175.5 139.613 L2172.37 139.613 L2172.37 136.303 L2175.5 136.303 L2175.5 128.942 L2179.78 128.942 Z" fill="#000000" fill-rule="nonzero" fill-opacity="1" /><path clip-path="url(#clip080)" d="M2194.15 136.303 L2198.41 136.303 L2198.41 162.229 L2194.15 162.229 L2194.15 136.303 M2194.15 126.21 L2198.41 126.21 L2198.41 131.604 L2194.15 131.604 L2194.15 126.21 Z" fill="#000000" fill-rule="nonzero" fill-opacity="1" /><path clip-path="url(#clip080)" d="M2204.27 136.303 L2208.78 136.303 L2216.88 158.062 L2224.99 136.303 L2229.5 136.303 L2219.78 162.229 L2213.99 162.229 L2204.27 136.303 Z" fill="#000000" fill-rule="nonzero" fill-opacity="1" /><path clip-path="url(#clip080)" d="M2257.56 148.201 L2257.56 150.284 L2237.97 150.284 Q2238.25 154.682 2240.61 156.997 Q2243 159.289 2247.23 159.289 Q2249.69 159.289 2251.98 158.687 Q2254.29 158.085 2256.56 156.881 L2256.56 160.909 Q2254.27 161.881 2251.86 162.391 Q2249.45 162.9 2246.98 162.9 Q2240.77 162.9 2237.14 159.289 Q2233.53 155.678 2233.53 149.52 Q2233.53 143.155 2236.95 139.428 Q2240.4 135.678 2246.24 135.678 Q2251.47 135.678 2254.5 139.057 Q2257.56 142.414 2257.56 148.201 M2253.3 146.951 Q2253.25 143.456 2251.33 141.372 Q2249.43 139.289 2246.28 139.289 Q2242.72 139.289 2240.56 141.303 Q2238.44 143.317 2238.11 146.974 L2253.3 146.951 Z" fill="#000000" fill-rule="nonzero" fill-opacity="1" /><polyline clip-path="url(#clip080)" style="stroke:#e26f46; stroke-linecap:round; stroke-linejoin:round; stroke-width:4; stroke-opacity:1; fill:none" points="1853.71,196.789 1996.51,196.789 "/>
<path clip-path="url(#clip080)" d="M2036.7 197.865 Q2038.2 198.374 2039.62 200.041 Q2041.05 201.708 2042.49 204.624 L2047.23 214.069 L2042.21 214.069 L2037.79 205.203 Q2036.08 201.731 2034.45 200.596 Q2032.86 199.462 2030.08 199.462 L2024.99 199.462 L2024.99 214.069 L2020.31 214.069 L2020.31 179.509 L2030.87 179.509 Q2036.79 179.509 2039.71 181.985 Q2042.63 184.462 2042.63 189.462 Q2042.63 192.726 2041.1 194.879 Q2039.59 197.032 2036.7 197.865 M2024.99 183.351 L2024.99 195.62 L2030.87 195.62 Q2034.25 195.62 2035.96 194.069 Q2037.7 192.495 2037.7 189.462 Q2037.7 186.43 2035.96 184.902 Q2034.25 183.351 2030.87 183.351 L2024.99 183.351 Z" fill="#000000" fill-rule="nonzero" fill-opacity="1" /><path clip-path="url(#clip080)" d="M2073.11 200.041 L2073.11 202.124 L2053.53 202.124 Q2053.81 206.522 2056.17 208.837 Q2058.55 211.129 2062.79 211.129 Q2065.24 211.129 2067.53 210.527 Q2069.85 209.925 2072.12 208.721 L2072.12 212.749 Q2069.82 213.721 2067.42 214.231 Q2065.01 214.74 2062.53 214.74 Q2056.33 214.74 2052.7 211.129 Q2049.08 207.518 2049.08 201.36 Q2049.08 194.995 2052.51 191.268 Q2055.96 187.518 2061.79 187.518 Q2067.02 187.518 2070.06 190.897 Q2073.11 194.254 2073.11 200.041 M2068.85 198.791 Q2068.81 195.296 2066.89 193.212 Q2064.99 191.129 2061.84 191.129 Q2058.27 191.129 2056.12 193.143 Q2053.99 195.157 2053.67 198.814 L2068.85 198.791 Z" fill="#000000" fill-rule="nonzero" fill-opacity="1" /><path clip-path="url(#clip080)" d="M2093.23 178.05 L2093.23 181.592 L2089.15 181.592 Q2086.86 181.592 2085.96 182.518 Q2085.08 183.444 2085.08 185.851 L2085.08 188.143 L2092.09 188.143 L2092.09 191.453 L2085.08 191.453 L2085.08 214.069 L2080.8 214.069 L2080.8 191.453 L2076.72 191.453 L2076.72 188.143 L2080.8 188.143 L2080.8 186.337 Q2080.8 182.009 2082.81 180.041 Q2084.82 178.05 2089.2 178.05 L2093.23 178.05 Z" fill="#000000" fill-rule="nonzero" fill-opacity="1" /><path clip-path="url(#clip080)" d="M2118.97 200.041 L2118.97 202.124 L2099.39 202.124 Q2099.66 206.522 2102.02 208.837 Q2104.41 211.129 2108.64 211.129 Q2111.1 211.129 2113.39 210.527 Q2115.7 209.925 2117.97 208.721 L2117.97 212.749 Q2115.68 213.721 2113.27 214.231 Q2110.87 214.74 2108.39 214.74 Q2102.19 214.74 2098.55 211.129 Q2094.94 207.518 2094.94 201.36 Q2094.94 194.995 2098.37 191.268 Q2101.82 187.518 2107.65 187.518 Q2112.88 187.518 2115.91 190.897 Q2118.97 194.254 2118.97 200.041 M2114.71 198.791 Q2114.66 195.296 2112.74 193.212 Q2110.84 191.129 2107.7 191.129 Q2104.13 191.129 2101.98 193.143 Q2099.85 195.157 2099.52 198.814 L2114.71 198.791 Z" fill="#000000" fill-rule="nonzero" fill-opacity="1" /><path clip-path="url(#clip080)" d="M2140.98 192.124 Q2140.26 191.708 2139.41 191.522 Q2138.57 191.314 2137.56 191.314 Q2133.95 191.314 2132 193.675 Q2130.08 196.013 2130.08 200.411 L2130.08 214.069 L2125.8 214.069 L2125.8 188.143 L2130.08 188.143 L2130.08 192.171 Q2131.42 189.809 2133.57 188.675 Q2135.73 187.518 2138.81 187.518 Q2139.25 187.518 2139.78 187.587 Q2140.31 187.634 2140.96 187.749 L2140.98 192.124 Z" fill="#000000" fill-rule="nonzero" fill-opacity="1" /><path clip-path="url(#clip080)" d="M2166.58 200.041 L2166.58 202.124 L2147 202.124 Q2147.28 206.522 2149.64 208.837 Q2152.02 211.129 2156.26 211.129 Q2158.71 211.129 2161.01 210.527 Q2163.32 209.925 2165.59 208.721 L2165.59 212.749 Q2163.3 213.721 2160.89 214.231 Q2158.48 214.74 2156.01 214.74 Q2149.8 214.74 2146.17 211.129 Q2142.56 207.518 2142.56 201.36 Q2142.56 194.995 2145.98 191.268 Q2149.43 187.518 2155.26 187.518 Q2160.5 187.518 2163.53 190.897 Q2166.58 194.254 2166.58 200.041 M2162.32 198.791 Q2162.28 195.296 2160.36 193.212 Q2158.46 191.129 2155.31 191.129 Q2151.75 191.129 2149.59 193.143 Q2147.46 195.157 2147.14 198.814 L2162.32 198.791 Z" fill="#000000" fill-rule="nonzero" fill-opacity="1" /><path clip-path="url(#clip080)" d="M2195.13 198.421 L2195.13 214.069 L2190.87 214.069 L2190.87 198.559 Q2190.87 194.879 2189.43 193.05 Q2188 191.222 2185.13 191.222 Q2181.68 191.222 2179.69 193.421 Q2177.69 195.62 2177.69 199.416 L2177.69 214.069 L2173.41 214.069 L2173.41 188.143 L2177.69 188.143 L2177.69 192.171 Q2179.22 189.833 2181.28 188.675 Q2183.37 187.518 2186.07 187.518 Q2190.54 187.518 2192.83 190.296 Q2195.13 193.05 2195.13 198.421 Z" fill="#000000" fill-rule="nonzero" fill-opacity="1" /><path clip-path="url(#clip080)" d="M2222.28 189.138 L2222.28 193.12 Q2220.47 192.124 2218.64 191.638 Q2216.84 191.129 2214.99 191.129 Q2210.84 191.129 2208.55 193.768 Q2206.26 196.384 2206.26 201.129 Q2206.26 205.874 2208.55 208.513 Q2210.84 211.129 2214.99 211.129 Q2216.84 211.129 2218.64 210.643 Q2220.47 210.133 2222.28 209.138 L2222.28 213.073 Q2220.5 213.907 2218.57 214.323 Q2216.68 214.74 2214.52 214.74 Q2208.67 214.74 2205.22 211.059 Q2201.77 207.379 2201.77 201.129 Q2201.77 194.786 2205.24 191.152 Q2208.74 187.518 2214.8 187.518 Q2216.77 187.518 2218.64 187.935 Q2220.52 188.328 2222.28 189.138 Z" fill="#000000" fill-rule="nonzero" fill-opacity="1" /><path clip-path="url(#clip080)" d="M2251.86 200.041 L2251.86 202.124 L2232.28 202.124 Q2232.56 206.522 2234.92 208.837 Q2237.3 211.129 2241.54 211.129 Q2243.99 211.129 2246.28 210.527 Q2248.6 209.925 2250.87 208.721 L2250.87 212.749 Q2248.57 213.721 2246.17 214.231 Q2243.76 214.74 2241.28 214.74 Q2235.08 214.74 2231.44 211.129 Q2227.83 207.518 2227.83 201.36 Q2227.83 194.995 2231.26 191.268 Q2234.71 187.518 2240.54 187.518 Q2245.77 187.518 2248.81 190.897 Q2251.86 194.254 2251.86 200.041 M2247.6 198.791 Q2247.56 195.296 2245.63 193.212 Q2243.74 191.129 2240.59 191.129 Q2237.02 191.129 2234.87 193.143 Q2232.74 195.157 2232.42 198.814 L2247.6 198.791 Z" fill="#000000" fill-rule="nonzero" fill-opacity="1" /></svg>
