<?xml version="1.0" encoding="utf-8"?>
<svg xmlns="http://www.w3.org/2000/svg" xmlns:xlink="http://www.w3.org/1999/xlink" width="600" height="400" viewBox="0 0 2400 1600">
<defs>
  <clipPath id="clip270">
    <rect x="0" y="0" width="2400" height="1600"/>
  </clipPath>
</defs>
<path clip-path="url(#clip270)" d="M0 1600 L2400 1600 L2400 0 L0 0  Z" fill="#ffffff" fill-rule="evenodd" fill-opacity="1"/>
<defs>
  <clipPath id="clip271">
    <rect x="480" y="0" width="1681" height="1600"/>
  </clipPath>
</defs>
<path clip-path="url(#clip270)" d="M257.366 1423.18 L2352.76 1423.18 L2352.76 47.2441 L257.366 47.2441  Z" fill="#ffffff" fill-rule="evenodd" fill-opacity="1"/>
<defs>
  <clipPath id="clip272">
    <rect x="257" y="47" width="2096" height="1377"/>
  </clipPath>
</defs>
<polyline clip-path="url(#clip272)" style="stroke:#000000; stroke-linecap:round; stroke-linejoin:round; stroke-width:2; stroke-opacity:0.1; fill:none" points="257.366,1423.18 257.366,47.2441 "/>
<polyline clip-path="url(#clip272)" style="stroke:#000000; stroke-linecap:round; stroke-linejoin:round; stroke-width:2; stroke-opacity:0.1; fill:none" points="781.214,1423.18 781.214,47.2441 "/>
<polyline clip-path="url(#clip272)" style="stroke:#000000; stroke-linecap:round; stroke-linejoin:round; stroke-width:2; stroke-opacity:0.1; fill:none" points="1305.06,1423.18 1305.06,47.2441 "/>
<polyline clip-path="url(#clip272)" style="stroke:#000000; stroke-linecap:round; stroke-linejoin:round; stroke-width:2; stroke-opacity:0.1; fill:none" points="1828.91,1423.18 1828.91,47.2441 "/>
<polyline clip-path="url(#clip272)" style="stroke:#000000; stroke-linecap:round; stroke-linejoin:round; stroke-width:2; stroke-opacity:0.1; fill:none" points="2352.76,1423.18 2352.76,47.2441 "/>
<polyline clip-path="url(#clip270)" style="stroke:#000000; stroke-linecap:round; stroke-linejoin:round; stroke-width:4; stroke-opacity:1; fill:none" points="257.366,1423.18 2352.76,1423.18 "/>
<polyline clip-path="url(#clip270)" style="stroke:#000000; stroke-linecap:round; stroke-linejoin:round; stroke-width:4; stroke-opacity:1; fill:none" points="257.366,1423.18 257.366,1404.28 "/>
<polyline clip-path="url(#clip270)" style="stroke:#000000; stroke-linecap:round; stroke-linejoin:round; stroke-width:4; stroke-opacity:1; fill:none" points="781.214,1423.18 781.214,1404.28 "/>
<polyline clip-path="url(#clip270)" style="stroke:#000000; stroke-linecap:round; stroke-linejoin:round; stroke-width:4; stroke-opacity:1; fill:none" points="1305.06,1423.18 1305.06,1404.28 "/>
<polyline clip-path="url(#clip270)" style="stroke:#000000; stroke-linecap:round; stroke-linejoin:round; stroke-width:4; stroke-opacity:1; fill:none" points="1828.91,1423.18 1828.91,1404.28 "/>
<polyline clip-path="url(#clip270)" style="stroke:#000000; stroke-linecap:round; stroke-linejoin:round; stroke-width:4; stroke-opacity:1; fill:none" points="2352.76,1423.18 2352.76,1404.28 "/>
<path clip-path="url(#clip270)" d="M203.894 1468.75 L233.57 1468.75 L233.57 1472.69 L203.894 1472.69 L203.894 1468.75 Z" fill="#000000" fill-rule="nonzero" fill-opacity="1" /><path clip-path="url(#clip270)" d="M244.473 1481.64 L252.111 1481.64 L252.111 1455.28 L243.801 1456.95 L243.801 1452.69 L252.065 1451.02 L256.741 1451.02 L256.741 1481.64 L264.38 1481.64 L264.38 1485.58 L244.473 1485.58 L244.473 1481.64 Z" fill="#000000" fill-rule="nonzero" fill-opacity="1" /><path clip-path="url(#clip270)" d="M273.824 1479.7 L278.709 1479.7 L278.709 1485.58 L273.824 1485.58 L273.824 1479.7 Z" fill="#000000" fill-rule="nonzero" fill-opacity="1" /><path clip-path="url(#clip270)" d="M298.894 1454.1 Q295.283 1454.1 293.454 1457.66 Q291.648 1461.2 291.648 1468.33 Q291.648 1475.44 293.454 1479.01 Q295.283 1482.55 298.894 1482.55 Q302.528 1482.55 304.333 1479.01 Q306.162 1475.44 306.162 1468.33 Q306.162 1461.2 304.333 1457.66 Q302.528 1454.1 298.894 1454.1 M298.894 1450.39 Q304.704 1450.39 307.759 1455 Q310.838 1459.58 310.838 1468.33 Q310.838 1477.06 307.759 1481.67 Q304.704 1486.25 298.894 1486.25 Q293.083 1486.25 290.005 1481.67 Q286.949 1477.06 286.949 1468.33 Q286.949 1459.58 290.005 1455 Q293.083 1450.39 298.894 1450.39 Z" fill="#000000" fill-rule="nonzero" fill-opacity="1" /><path clip-path="url(#clip270)" d="M728.239 1468.75 L757.915 1468.75 L757.915 1472.69 L728.239 1472.69 L728.239 1468.75 Z" fill="#000000" fill-rule="nonzero" fill-opacity="1" /><path clip-path="url(#clip270)" d="M778.008 1454.1 Q774.396 1454.1 772.568 1457.66 Q770.762 1461.2 770.762 1468.33 Q770.762 1475.44 772.568 1479.01 Q774.396 1482.55 778.008 1482.55 Q781.642 1482.55 783.447 1479.01 Q785.276 1475.44 785.276 1468.33 Q785.276 1461.2 783.447 1457.66 Q781.642 1454.1 778.008 1454.1 M778.008 1450.39 Q783.818 1450.39 786.873 1455 Q789.952 1459.58 789.952 1468.33 Q789.952 1477.06 786.873 1481.67 Q783.818 1486.25 778.008 1486.25 Q772.197 1486.25 769.119 1481.67 Q766.063 1477.06 766.063 1468.33 Q766.063 1459.58 769.119 1455 Q772.197 1450.39 778.008 1450.39 Z" fill="#000000" fill-rule="nonzero" fill-opacity="1" /><path clip-path="url(#clip270)" d="M798.169 1479.7 L803.054 1479.7 L803.054 1485.58 L798.169 1485.58 L798.169 1479.7 Z" fill="#000000" fill-rule="nonzero" fill-opacity="1" /><path clip-path="url(#clip270)" d="M813.285 1451.02 L831.641 1451.02 L831.641 1454.96 L817.567 1454.96 L817.567 1463.43 Q818.586 1463.08 819.605 1462.92 Q820.623 1462.73 821.642 1462.73 Q827.429 1462.73 830.808 1465.9 Q834.188 1469.08 834.188 1474.49 Q834.188 1480.07 830.716 1483.17 Q827.243 1486.25 820.924 1486.25 Q818.748 1486.25 816.48 1485.88 Q814.234 1485.51 811.827 1484.77 L811.827 1480.07 Q813.91 1481.2 816.132 1481.76 Q818.355 1482.32 820.831 1482.32 Q824.836 1482.32 827.174 1480.21 Q829.512 1478.1 829.512 1474.49 Q829.512 1470.88 827.174 1468.77 Q824.836 1466.67 820.831 1466.67 Q818.956 1466.67 817.081 1467.08 Q815.23 1467.5 813.285 1468.38 L813.285 1451.02 Z" fill="#000000" fill-rule="nonzero" fill-opacity="1" /><path clip-path="url(#clip270)" d="M1282.45 1454.1 Q1278.83 1454.1 1277.01 1457.66 Q1275.2 1461.2 1275.2 1468.33 Q1275.2 1475.44 1277.01 1479.01 Q1278.83 1482.55 1282.45 1482.55 Q1286.08 1482.55 1287.89 1479.01 Q1289.71 1475.44 1289.71 1468.33 Q1289.71 1461.2 1287.89 1457.66 Q1286.08 1454.1 1282.45 1454.1 M1282.45 1450.39 Q1288.26 1450.39 1291.31 1455 Q1294.39 1459.58 1294.39 1468.33 Q1294.39 1477.06 1291.31 1481.67 Q1288.26 1486.25 1282.45 1486.25 Q1276.64 1486.25 1273.56 1481.67 Q1270.5 1477.06 1270.5 1468.33 Q1270.5 1459.58 1273.56 1455 Q1276.64 1450.39 1282.45 1450.39 Z" fill="#000000" fill-rule="nonzero" fill-opacity="1" /><path clip-path="url(#clip270)" d="M1302.61 1479.7 L1307.49 1479.7 L1307.49 1485.58 L1302.61 1485.58 L1302.61 1479.7 Z" fill="#000000" fill-rule="nonzero" fill-opacity="1" /><path clip-path="url(#clip270)" d="M1327.68 1454.1 Q1324.07 1454.1 1322.24 1457.66 Q1320.43 1461.2 1320.43 1468.33 Q1320.43 1475.44 1322.24 1479.01 Q1324.07 1482.55 1327.68 1482.55 Q1331.31 1482.55 1333.12 1479.01 Q1334.95 1475.44 1334.95 1468.33 Q1334.95 1461.2 1333.12 1457.66 Q1331.31 1454.1 1327.68 1454.1 M1327.68 1450.39 Q1333.49 1450.39 1336.54 1455 Q1339.62 1459.58 1339.62 1468.33 Q1339.62 1477.06 1336.54 1481.67 Q1333.49 1486.25 1327.68 1486.25 Q1321.87 1486.25 1318.79 1481.67 Q1315.73 1477.06 1315.73 1468.33 Q1315.73 1459.58 1318.79 1455 Q1321.87 1450.39 1327.68 1450.39 Z" fill="#000000" fill-rule="nonzero" fill-opacity="1" /><path clip-path="url(#clip270)" d="M1806.79 1454.1 Q1803.18 1454.1 1801.35 1457.66 Q1799.55 1461.2 1799.55 1468.33 Q1799.55 1475.44 1801.35 1479.01 Q1803.18 1482.55 1806.79 1482.55 Q1810.42 1482.55 1812.23 1479.01 Q1814.06 1475.44 1814.06 1468.33 Q1814.06 1461.2 1812.23 1457.66 Q1810.42 1454.1 1806.79 1454.1 M1806.79 1450.39 Q1812.6 1450.39 1815.66 1455 Q1818.73 1459.58 1818.73 1468.33 Q1818.73 1477.06 1815.66 1481.67 Q1812.6 1486.25 1806.79 1486.25 Q1800.98 1486.25 1797.9 1481.67 Q1794.85 1477.06 1794.85 1468.33 Q1794.85 1459.58 1797.9 1455 Q1800.98 1450.39 1806.79 1450.39 Z" fill="#000000" fill-rule="nonzero" fill-opacity="1" /><path clip-path="url(#clip270)" d="M1826.95 1479.7 L1831.84 1479.7 L1831.84 1485.58 L1826.95 1485.58 L1826.95 1479.7 Z" fill="#000000" fill-rule="nonzero" fill-opacity="1" /><path clip-path="url(#clip270)" d="M1842.07 1451.02 L1860.42 1451.02 L1860.42 1454.96 L1846.35 1454.96 L1846.35 1463.43 Q1847.37 1463.08 1848.39 1462.92 Q1849.41 1462.73 1850.42 1462.73 Q1856.21 1462.73 1859.59 1465.9 Q1862.97 1469.08 1862.97 1474.49 Q1862.97 1480.07 1859.5 1483.17 Q1856.03 1486.25 1849.71 1486.25 Q1847.53 1486.25 1845.26 1485.88 Q1843.02 1485.51 1840.61 1484.77 L1840.61 1480.07 Q1842.69 1481.2 1844.92 1481.76 Q1847.14 1482.32 1849.61 1482.32 Q1853.62 1482.32 1855.96 1480.21 Q1858.29 1478.1 1858.29 1474.49 Q1858.29 1470.88 1855.96 1468.77 Q1853.62 1466.67 1849.61 1466.67 Q1847.74 1466.67 1845.86 1467.08 Q1844.01 1467.5 1842.07 1468.38 L1842.07 1451.02 Z" fill="#000000" fill-rule="nonzero" fill-opacity="1" /><path clip-path="url(#clip270)" d="M2319.91 1481.64 L2327.55 1481.64 L2327.55 1455.28 L2319.24 1456.95 L2319.24 1452.69 L2327.5 1451.02 L2332.18 1451.02 L2332.18 1481.64 L2339.82 1481.64 L2339.82 1485.58 L2319.91 1485.58 L2319.91 1481.64 Z" fill="#000000" fill-rule="nonzero" fill-opacity="1" /><path clip-path="url(#clip270)" d="M2349.26 1479.7 L2354.14 1479.7 L2354.14 1485.58 L2349.26 1485.58 L2349.26 1479.7 Z" fill="#000000" fill-rule="nonzero" fill-opacity="1" /><path clip-path="url(#clip270)" d="M2374.33 1454.1 Q2370.72 1454.1 2368.89 1457.66 Q2367.08 1461.2 2367.08 1468.33 Q2367.08 1475.44 2368.89 1479.01 Q2370.72 1482.55 2374.33 1482.55 Q2377.96 1482.55 2379.77 1479.01 Q2381.6 1475.44 2381.6 1468.33 Q2381.6 1461.2 2379.77 1457.66 Q2377.96 1454.1 2374.33 1454.1 M2374.33 1450.39 Q2380.14 1450.39 2383.2 1455 Q2386.27 1459.58 2386.27 1468.33 Q2386.27 1477.06 2383.2 1481.67 Q2380.14 1486.25 2374.33 1486.25 Q2368.52 1486.25 2365.44 1481.67 Q2362.39 1477.06 2362.39 1468.33 Q2362.39 1459.58 2365.44 1455 Q2368.52 1450.39 2374.33 1450.39 Z" fill="#000000" fill-rule="nonzero" fill-opacity="1" /><path clip-path="url(#clip270)" d="M1321.68 1532.4 L1308.78 1549.74 L1322.34 1568.04 L1315.44 1568.04 L1305.06 1554.04 L1294.68 1568.04 L1287.78 1568.04 L1301.62 1549.39 L1288.96 1532.4 L1295.86 1532.4 L1305.32 1545.1 L1314.77 1532.4 L1321.68 1532.4 Z" fill="#000000" fill-rule="nonzero" fill-opacity="1" /><polyline clip-path="url(#clip272)" style="stroke:#000000; stroke-linecap:round; stroke-linejoin:round; stroke-width:2; stroke-opacity:0.1; fill:none" points="257.366,1220.03 2352.76,1220.03 "/>
<polyline clip-path="url(#clip272)" style="stroke:#000000; stroke-linecap:round; stroke-linejoin:round; stroke-width:2; stroke-opacity:0.1; fill:none" points="257.366,976.81 2352.76,976.81 "/>
<polyline clip-path="url(#clip272)" style="stroke:#000000; stroke-linecap:round; stroke-linejoin:round; stroke-width:2; stroke-opacity:0.1; fill:none" points="257.366,733.587 2352.76,733.587 "/>
<polyline clip-path="url(#clip272)" style="stroke:#000000; stroke-linecap:round; stroke-linejoin:round; stroke-width:2; stroke-opacity:0.1; fill:none" points="257.366,490.365 2352.76,490.365 "/>
<polyline clip-path="url(#clip272)" style="stroke:#000000; stroke-linecap:round; stroke-linejoin:round; stroke-width:2; stroke-opacity:0.1; fill:none" points="257.366,247.143 2352.76,247.143 "/>
<polyline clip-path="url(#clip270)" style="stroke:#000000; stroke-linecap:round; stroke-linejoin:round; stroke-width:4; stroke-opacity:1; fill:none" points="257.366,1423.18 257.366,47.2441 "/>
<polyline clip-path="url(#clip270)" style="stroke:#000000; stroke-linecap:round; stroke-linejoin:round; stroke-width:4; stroke-opacity:1; fill:none" points="257.366,1220.03 276.264,1220.03 "/>
<polyline clip-path="url(#clip270)" style="stroke:#000000; stroke-linecap:round; stroke-linejoin:round; stroke-width:4; stroke-opacity:1; fill:none" points="257.366,976.81 276.264,976.81 "/>
<polyline clip-path="url(#clip270)" style="stroke:#000000; stroke-linecap:round; stroke-linejoin:round; stroke-width:4; stroke-opacity:1; fill:none" points="257.366,733.587 276.264,733.587 "/>
<polyline clip-path="url(#clip270)" style="stroke:#000000; stroke-linecap:round; stroke-linejoin:round; stroke-width:4; stroke-opacity:1; fill:none" points="257.366,490.365 276.264,490.365 "/>
<polyline clip-path="url(#clip270)" style="stroke:#000000; stroke-linecap:round; stroke-linejoin:round; stroke-width:4; stroke-opacity:1; fill:none" points="257.366,247.143 276.264,247.143 "/>
<path clip-path="url(#clip270)" d="M114.26 1220.48 L143.936 1220.48 L143.936 1224.42 L114.26 1224.42 L114.26 1220.48 Z" fill="#000000" fill-rule="nonzero" fill-opacity="1" /><path clip-path="url(#clip270)" d="M164.028 1205.83 Q160.417 1205.83 158.589 1209.4 Q156.783 1212.94 156.783 1220.07 Q156.783 1227.17 158.589 1230.74 Q160.417 1234.28 164.028 1234.28 Q167.663 1234.28 169.468 1230.74 Q171.297 1227.17 171.297 1220.07 Q171.297 1212.94 169.468 1209.4 Q167.663 1205.83 164.028 1205.83 M164.028 1202.13 Q169.839 1202.13 172.894 1206.73 Q175.973 1211.32 175.973 1220.07 Q175.973 1228.79 172.894 1233.4 Q169.839 1237.98 164.028 1237.98 Q158.218 1237.98 155.14 1233.4 Q152.084 1228.79 152.084 1220.07 Q152.084 1211.32 155.14 1206.73 Q158.218 1202.13 164.028 1202.13 Z" fill="#000000" fill-rule="nonzero" fill-opacity="1" /><path clip-path="url(#clip270)" d="M184.19 1231.43 L189.075 1231.43 L189.075 1237.31 L184.19 1237.31 L184.19 1231.43 Z" fill="#000000" fill-rule="nonzero" fill-opacity="1" /><path clip-path="url(#clip270)" d="M209.838 1218.17 Q206.69 1218.17 204.838 1220.32 Q203.01 1222.47 203.01 1226.22 Q203.01 1229.95 204.838 1232.13 Q206.69 1234.28 209.838 1234.28 Q212.986 1234.28 214.815 1232.13 Q216.667 1229.95 216.667 1226.22 Q216.667 1222.47 214.815 1220.32 Q212.986 1218.17 209.838 1218.17 M219.121 1203.52 L219.121 1207.78 Q217.361 1206.94 215.556 1206.5 Q213.774 1206.06 212.014 1206.06 Q207.385 1206.06 204.931 1209.19 Q202.5 1212.31 202.153 1218.63 Q203.519 1216.62 205.579 1215.55 Q207.639 1214.46 210.116 1214.46 Q215.324 1214.46 218.334 1217.64 Q221.366 1220.78 221.366 1226.22 Q221.366 1231.55 218.218 1234.77 Q215.07 1237.98 209.838 1237.98 Q203.843 1237.98 200.672 1233.4 Q197.5 1228.79 197.5 1220.07 Q197.5 1211.87 201.389 1207.01 Q205.278 1202.13 211.829 1202.13 Q213.588 1202.13 215.371 1202.47 Q217.176 1202.82 219.121 1203.52 Z" fill="#000000" fill-rule="nonzero" fill-opacity="1" /><path clip-path="url(#clip270)" d="M115.07 977.261 L144.746 977.261 L144.746 981.196 L115.07 981.196 L115.07 977.261 Z" fill="#000000" fill-rule="nonzero" fill-opacity="1" /><path clip-path="url(#clip270)" d="M164.839 962.608 Q161.227 962.608 159.399 966.173 Q157.593 969.715 157.593 976.844 Q157.593 983.951 159.399 987.516 Q161.227 991.057 164.839 991.057 Q168.473 991.057 170.278 987.516 Q172.107 983.951 172.107 976.844 Q172.107 969.715 170.278 966.173 Q168.473 962.608 164.839 962.608 M164.839 958.905 Q170.649 958.905 173.704 963.511 Q176.783 968.094 176.783 976.844 Q176.783 985.571 173.704 990.178 Q170.649 994.761 164.839 994.761 Q159.028 994.761 155.95 990.178 Q152.894 985.571 152.894 976.844 Q152.894 968.094 155.95 963.511 Q159.028 958.905 164.839 958.905 Z" fill="#000000" fill-rule="nonzero" fill-opacity="1" /><path clip-path="url(#clip270)" d="M185.001 988.21 L189.885 988.21 L189.885 994.09 L185.001 994.09 L185.001 988.21 Z" fill="#000000" fill-rule="nonzero" fill-opacity="1" /><path clip-path="url(#clip270)" d="M214.236 975.455 Q217.593 976.173 219.468 978.442 Q221.366 980.71 221.366 984.043 Q221.366 989.159 217.848 991.96 Q214.329 994.761 207.848 994.761 Q205.672 994.761 203.357 994.321 Q201.065 993.904 198.612 993.048 L198.612 988.534 Q200.556 989.668 202.871 990.247 Q205.186 990.826 207.709 990.826 Q212.107 990.826 214.399 989.09 Q216.713 987.354 216.713 984.043 Q216.713 980.988 214.561 979.275 Q212.431 977.539 208.612 977.539 L204.584 977.539 L204.584 973.696 L208.797 973.696 Q212.246 973.696 214.074 972.33 Q215.903 970.942 215.903 968.349 Q215.903 965.687 214.005 964.275 Q212.13 962.84 208.612 962.84 Q206.69 962.84 204.491 963.256 Q202.292 963.673 199.653 964.553 L199.653 960.386 Q202.315 959.645 204.63 959.275 Q206.968 958.905 209.028 958.905 Q214.352 958.905 217.454 961.335 Q220.556 963.743 220.556 967.863 Q220.556 970.733 218.912 972.724 Q217.269 974.692 214.236 975.455 Z" fill="#000000" fill-rule="nonzero" fill-opacity="1" /><path clip-path="url(#clip270)" d="M164.19 719.386 Q160.579 719.386 158.751 722.951 Q156.945 726.492 156.945 733.622 Q156.945 740.728 158.751 744.293 Q160.579 747.835 164.19 747.835 Q167.825 747.835 169.63 744.293 Q171.459 740.728 171.459 733.622 Q171.459 726.492 169.63 722.951 Q167.825 719.386 164.19 719.386 M164.19 715.682 Q170.001 715.682 173.056 720.289 Q176.135 724.872 176.135 733.622 Q176.135 742.349 173.056 746.955 Q170.001 751.539 164.19 751.539 Q158.38 751.539 155.302 746.955 Q152.246 742.349 152.246 733.622 Q152.246 724.872 155.302 720.289 Q158.38 715.682 164.19 715.682 Z" fill="#000000" fill-rule="nonzero" fill-opacity="1" /><path clip-path="url(#clip270)" d="M184.352 744.988 L189.237 744.988 L189.237 750.867 L184.352 750.867 L184.352 744.988 Z" fill="#000000" fill-rule="nonzero" fill-opacity="1" /><path clip-path="url(#clip270)" d="M209.422 719.386 Q205.811 719.386 203.982 722.951 Q202.176 726.492 202.176 733.622 Q202.176 740.728 203.982 744.293 Q205.811 747.835 209.422 747.835 Q213.056 747.835 214.861 744.293 Q216.69 740.728 216.69 733.622 Q216.69 726.492 214.861 722.951 Q213.056 719.386 209.422 719.386 M209.422 715.682 Q215.232 715.682 218.287 720.289 Q221.366 724.872 221.366 733.622 Q221.366 742.349 218.287 746.955 Q215.232 751.539 209.422 751.539 Q203.612 751.539 200.533 746.955 Q197.477 742.349 197.477 733.622 Q197.477 724.872 200.533 720.289 Q203.612 715.682 209.422 715.682 Z" fill="#000000" fill-rule="nonzero" fill-opacity="1" /><path clip-path="url(#clip270)" d="M164.839 476.164 Q161.227 476.164 159.399 479.728 Q157.593 483.27 157.593 490.4 Q157.593 497.506 159.399 501.071 Q161.227 504.613 164.839 504.613 Q168.473 504.613 170.278 501.071 Q172.107 497.506 172.107 490.4 Q172.107 483.27 170.278 479.728 Q168.473 476.164 164.839 476.164 M164.839 472.46 Q170.649 472.46 173.704 477.066 Q176.783 481.65 176.783 490.4 Q176.783 499.126 173.704 503.733 Q170.649 508.316 164.839 508.316 Q159.028 508.316 155.95 503.733 Q152.894 499.126 152.894 490.4 Q152.894 481.65 155.95 477.066 Q159.028 472.46 164.839 472.46 Z" fill="#000000" fill-rule="nonzero" fill-opacity="1" /><path clip-path="url(#clip270)" d="M185.001 501.765 L189.885 501.765 L189.885 507.645 L185.001 507.645 L185.001 501.765 Z" fill="#000000" fill-rule="nonzero" fill-opacity="1" /><path clip-path="url(#clip270)" d="M214.236 489.011 Q217.593 489.728 219.468 491.997 Q221.366 494.265 221.366 497.599 Q221.366 502.714 217.848 505.515 Q214.329 508.316 207.848 508.316 Q205.672 508.316 203.357 507.876 Q201.065 507.46 198.612 506.603 L198.612 502.089 Q200.556 503.224 202.871 503.802 Q205.186 504.381 207.709 504.381 Q212.107 504.381 214.399 502.645 Q216.713 500.909 216.713 497.599 Q216.713 494.543 214.561 492.83 Q212.431 491.094 208.612 491.094 L204.584 491.094 L204.584 487.252 L208.797 487.252 Q212.246 487.252 214.074 485.886 Q215.903 484.497 215.903 481.904 Q215.903 479.242 214.005 477.83 Q212.13 476.395 208.612 476.395 Q206.69 476.395 204.491 476.812 Q202.292 477.228 199.653 478.108 L199.653 473.941 Q202.315 473.201 204.63 472.83 Q206.968 472.46 209.028 472.46 Q214.352 472.46 217.454 474.89 Q220.556 477.298 220.556 481.418 Q220.556 484.289 218.912 486.279 Q217.269 488.247 214.236 489.011 Z" fill="#000000" fill-rule="nonzero" fill-opacity="1" /><path clip-path="url(#clip270)" d="M164.028 232.941 Q160.417 232.941 158.589 236.506 Q156.783 240.048 156.783 247.177 Q156.783 254.284 158.589 257.849 Q160.417 261.39 164.028 261.39 Q167.663 261.39 169.468 257.849 Q171.297 254.284 171.297 247.177 Q171.297 240.048 169.468 236.506 Q167.663 232.941 164.028 232.941 M164.028 229.238 Q169.839 229.238 172.894 233.844 Q175.973 238.427 175.973 247.177 Q175.973 255.904 172.894 260.511 Q169.839 265.094 164.028 265.094 Q158.218 265.094 155.14 260.511 Q152.084 255.904 152.084 247.177 Q152.084 238.427 155.14 233.844 Q158.218 229.238 164.028 229.238 Z" fill="#000000" fill-rule="nonzero" fill-opacity="1" /><path clip-path="url(#clip270)" d="M184.19 258.543 L189.075 258.543 L189.075 264.423 L184.19 264.423 L184.19 258.543 Z" fill="#000000" fill-rule="nonzero" fill-opacity="1" /><path clip-path="url(#clip270)" d="M209.838 245.279 Q206.69 245.279 204.838 247.432 Q203.01 249.585 203.01 253.335 Q203.01 257.062 204.838 259.237 Q206.69 261.39 209.838 261.39 Q212.986 261.39 214.815 259.237 Q216.667 257.062 216.667 253.335 Q216.667 249.585 214.815 247.432 Q212.986 245.279 209.838 245.279 M219.121 230.626 L219.121 234.886 Q217.361 234.052 215.556 233.613 Q213.774 233.173 212.014 233.173 Q207.385 233.173 204.931 236.298 Q202.5 239.423 202.153 245.742 Q203.519 243.728 205.579 242.663 Q207.639 241.575 210.116 241.575 Q215.324 241.575 218.334 244.747 Q221.366 247.895 221.366 253.335 Q221.366 258.659 218.218 261.876 Q215.07 265.094 209.838 265.094 Q203.843 265.094 200.672 260.511 Q197.5 255.904 197.5 247.177 Q197.5 238.983 201.389 234.122 Q205.278 229.238 211.829 229.238 Q213.588 229.238 215.371 229.585 Q217.176 229.932 219.121 230.626 Z" fill="#000000" fill-rule="nonzero" fill-opacity="1" /><path clip-path="url(#clip270)" d="M14.479 776.096 L27.6241 776.096 Q27.6241 769.762 32.4939 765.529 Q37.4592 761.168 46.212 761.168 Q54.9649 761.168 59.9301 765.529 Q64.7999 769.762 64.7999 776.096 L77.5631 776.096 L77.5631 781.92 L64.7999 781.92 Q64.7999 788.254 59.9301 792.519 Q54.9649 796.848 46.212 796.848 Q37.4592 796.848 32.4939 792.519 Q27.6241 788.254 27.6241 781.92 L14.479 781.92 L14.479 776.096 M59.58 776.096 Q59.58 772.499 56.3017 770.048 Q52.6414 767.375 46.212 767.343 Q39.8463 767.311 36.1224 770.048 Q32.844 772.499 32.844 776.096 L59.58 776.096 M59.58 781.92 L32.844 781.92 Q32.844 785.517 36.1224 787.936 Q39.8463 790.705 46.212 790.673 Q52.6414 790.641 56.3017 787.936 Q59.58 785.517 59.58 781.92 Z" fill="#000000" fill-rule="nonzero" fill-opacity="1" /><path clip-path="url(#clip270)" d="M14.5426 737.201 Q21.8632 741.466 29.0246 743.535 Q36.186 745.604 43.5384 745.604 Q50.8908 745.604 58.1159 743.535 Q65.3091 741.434 72.5979 737.201 L72.5979 742.294 Q65.1182 747.068 57.8931 749.455 Q50.668 751.811 43.5384 751.811 Q36.4406 751.811 29.2474 749.455 Q22.0542 747.1 14.5426 742.294 L14.5426 737.201 Z" fill="#000000" fill-rule="nonzero" fill-opacity="1" /><path clip-path="url(#clip270)" d="M28.3562 696.206 L45.7028 709.097 L64.0042 695.538 L64.0042 702.444 L49.9996 712.821 L64.0042 723.197 L64.0042 730.103 L45.3526 716.258 L28.3562 728.926 L28.3562 722.019 L41.0558 712.566 L28.3562 703.113 L28.3562 696.206 Z" fill="#000000" fill-rule="nonzero" fill-opacity="1" /><path clip-path="url(#clip270)" d="M14.5426 688.185 L14.5426 683.093 Q22.0542 678.318 29.2474 675.963 Q36.4406 673.576 43.5384 673.576 Q50.668 673.576 57.8931 675.963 Q65.1182 678.318 72.5979 683.093 L72.5979 688.185 Q65.3091 683.952 58.1159 681.883 Q50.8908 679.783 43.5384 679.783 Q36.186 679.783 29.0246 681.883 Q21.8632 683.952 14.5426 688.185 Z" fill="#000000" fill-rule="nonzero" fill-opacity="1" /><polyline clip-path="url(#clip272)" style="stroke:#009af9; stroke-linecap:round; stroke-linejoin:round; stroke-width:4; stroke-opacity:1; fill:none" points="257.366,720.385 278.532,724.056 299.697,729.497 320.863,741.933 342.028,752.935 363.194,773.239 384.359,797.747 405.525,816.206 426.69,846.725 447.856,868.745 469.022,903.901 490.187,928.523 511.353,966.826 532.518,1006.27 553.684,1032.93 574.849,1073.02 596.015,1099.59 617.18,1138.77 638.346,1176.66 659.512,1200.95 680.677,1235.56 701.843,1257.19 723.008,1287.16 744.174,1305.29 765.339,1329.43 786.505,1349.58 807.67,1360.64 828.836,1373.46 850.002,1379.4 871.167,1384.24 892.333,1384.07 913.498,1381.14 934.664,1372.45 955.829,1363.8 976.995,1346.57 998.16,1324.31 1019.33,1306.75 1040.49,1276.44 1061.66,1253.69 1082.82,1215.95 1103.99,1188.49 1125.15,1144.13 1146.32,1096.28 1167.48,1062.63 1188.65,1009.85 1209.82,973.327 1230.98,916.882 1252.15,858.878 1273.31,819.591 1294.48,760.115 1315.64,720.323 1336.81,660.81 1357.97,621.475 1379.14,563.362 1400.31,506.763 1421.47,470.113 1442.64,417.112 1463.8,383.287 1484.97,335.132 1506.13,290.428 1527.3,262.724 1548.46,224.563 1569.63,201.513 1590.8,170.718 1611.96,152.803 1633.13,129.985 1654.29,112.151 1675.46,103.074 1696.62,93.7073 1717.79,90.2928 1738.95,89.3788 1760.12,93.4249 1781.29,98.8064 1802.45,110.762 1823.62,121.219 1844.78,140.43 1865.95,163.586 1887.11,181.039 1908.28,209.947 1929.44,230.854 1950.61,264.327 1971.78,287.841 1992.94,324.536 2014.11,362.468 2035.27,388.175 2056.44,426.952 2077.6,452.703 2098.77,490.759 2119.93,527.627 2141.1,551.268 2162.27,584.915 2183.43,605.905 2204.6,634.843 2225.76,652.223 2246.93,675.077 2268.09,693.684 2289.26,703.53 2310.42,714.193 2331.59,718.428 2352.76,720.385 "/>
<polyline clip-path="url(#clip272)" style="stroke:#e26f46; stroke-linecap:round; stroke-linejoin:round; stroke-width:4; stroke-opacity:1; fill:none" points="257.366,733.587 278.532,735.644 299.697,741.713 320.863,751.622 342.028,765.165 363.194,782.113 384.359,802.208 405.525,825.171 426.69,850.703 447.856,878.486 469.022,908.189 490.187,939.467 511.353,971.968 532.518,1005.33 553.684,1039.19 574.849,1073.19 596.015,1106.97 617.18,1140.16 638.346,1172.42 659.512,1203.41 680.677,1232.8 701.843,1260.29 723.008,1285.58 744.174,1308.4 765.339,1328.5 786.505,1345.64 807.67,1359.62 828.836,1370.27 850.002,1377.44 871.167,1380.99 892.333,1380.84 913.498,1376.93 934.664,1369.21 955.829,1357.7 976.995,1342.4 998.16,1323.38 1019.33,1300.73 1040.49,1274.55 1061.66,1244.99 1082.82,1212.2 1103.99,1176.39 1125.15,1137.77 1146.32,1096.56 1167.48,1053.03 1188.65,1007.45 1209.82,960.112 1230.98,911.309 1252.15,861.359 1273.31,810.582 1294.48,759.308 1315.64,707.867 1336.81,656.592 1357.97,605.816 1379.14,555.865 1400.31,507.063 1421.47,459.721 1442.64,414.141 1463.8,370.613 1484.97,329.408 1506.13,290.782 1527.3,254.971 1548.46,222.187 1569.63,192.623 1590.8,166.444 1611.96,143.79 1633.13,124.773 1654.29,109.478 1675.46,97.9614 1696.62,90.2478 1717.79,86.3339 1738.95,86.1857 1760.12,89.7394 1781.29,96.9018 1802.45,107.55 1823.62,121.534 1844.78,138.676 1865.95,158.771 1887.11,181.59 1908.28,206.882 1929.44,234.372 1950.61,263.768 1971.78,294.759 1992.94,327.019 2014.11,360.209 2035.27,393.982 2056.44,427.981 2077.6,461.843 2098.77,495.207 2119.93,527.707 2141.1,558.985 2162.27,588.688 2183.43,616.472 2204.6,642.003 2225.76,664.967 2246.93,685.062 2268.09,702.009 2289.26,715.553 2310.42,725.461 2331.59,731.531 2352.76,733.587 "/>
<path clip-path="url(#clip270)" d="M327.212 248.629 L768.301 248.629 L768.301 93.1086 L327.212 93.1086  Z" fill="#ffffff" fill-rule="evenodd" fill-opacity="1"/>
<polyline clip-path="url(#clip270)" style="stroke:#000000; stroke-linecap:round; stroke-linejoin:round; stroke-width:4; stroke-opacity:1; fill:none" points="327.212,248.629 768.301,248.629 768.301,93.1086 327.212,93.1086 327.212,248.629 "/>
<polyline clip-path="url(#clip270)" style="stroke:#009af9; stroke-linecap:round; stroke-linejoin:round; stroke-width:4; stroke-opacity:1; fill:none" points="350.495,144.949 490.187,144.949 "/>
<path clip-path="url(#clip270)" d="M535.715 128.803 L535.715 133.363 Q533.052 132.09 530.691 131.465 Q528.33 130.84 526.131 130.84 Q522.312 130.84 520.228 132.321 Q518.168 133.803 518.168 136.534 Q518.168 138.826 519.534 140.007 Q520.923 141.164 524.766 141.882 L527.59 142.46 Q532.821 143.456 535.298 145.979 Q537.798 148.479 537.798 152.692 Q537.798 157.715 534.418 160.307 Q531.062 162.9 524.557 162.9 Q522.103 162.9 519.326 162.344 Q516.571 161.789 513.608 160.701 L513.608 155.886 Q516.455 157.483 519.187 158.293 Q521.918 159.104 524.557 159.104 Q528.562 159.104 530.738 157.53 Q532.914 155.956 532.914 153.039 Q532.914 150.493 531.34 149.057 Q529.789 147.622 526.224 146.905 L523.377 146.349 Q518.145 145.307 515.807 143.085 Q513.469 140.863 513.469 136.905 Q513.469 132.321 516.687 129.682 Q519.928 127.044 525.599 127.044 Q528.029 127.044 530.553 127.483 Q533.076 127.923 535.715 128.803 Z" fill="#000000" fill-rule="nonzero" fill-opacity="1" /><path clip-path="url(#clip270)" d="M554.951 139.289 Q551.525 139.289 549.534 141.974 Q547.543 144.636 547.543 149.289 Q547.543 153.942 549.511 156.627 Q551.501 159.289 554.951 159.289 Q558.353 159.289 560.344 156.604 Q562.335 153.918 562.335 149.289 Q562.335 144.682 560.344 141.997 Q558.353 139.289 554.951 139.289 M554.951 135.678 Q560.506 135.678 563.677 139.289 Q566.849 142.9 566.849 149.289 Q566.849 155.655 563.677 159.289 Q560.506 162.9 554.951 162.9 Q549.372 162.9 546.201 159.289 Q543.052 155.655 543.052 149.289 Q543.052 142.9 546.201 139.289 Q549.372 135.678 554.951 135.678 Z" fill="#000000" fill-rule="nonzero" fill-opacity="1" /><path clip-path="url(#clip270)" d="M573.909 126.21 L578.168 126.21 L578.168 162.229 L573.909 162.229 L573.909 126.21 Z" fill="#000000" fill-rule="nonzero" fill-opacity="1" /><path clip-path="url(#clip270)" d="M586.64 151.997 L586.64 136.303 L590.899 136.303 L590.899 151.835 Q590.899 155.516 592.335 157.368 Q593.77 159.196 596.64 159.196 Q600.089 159.196 602.08 156.997 Q604.094 154.798 604.094 151.002 L604.094 136.303 L608.353 136.303 L608.353 162.229 L604.094 162.229 L604.094 158.247 Q602.543 160.608 600.483 161.766 Q598.446 162.9 595.737 162.9 Q591.27 162.9 588.955 160.122 Q586.64 157.344 586.64 151.997 M597.358 135.678 L597.358 135.678 Z" fill="#000000" fill-rule="nonzero" fill-opacity="1" /><path clip-path="url(#clip270)" d="M621.339 128.942 L621.339 136.303 L630.112 136.303 L630.112 139.613 L621.339 139.613 L621.339 153.687 Q621.339 156.858 622.196 157.761 Q623.075 158.664 625.737 158.664 L630.112 158.664 L630.112 162.229 L625.737 162.229 Q620.807 162.229 618.932 160.4 Q617.057 158.548 617.057 153.687 L617.057 139.613 L613.932 139.613 L613.932 136.303 L617.057 136.303 L617.057 128.942 L621.339 128.942 Z" fill="#000000" fill-rule="nonzero" fill-opacity="1" /><path clip-path="url(#clip270)" d="M635.714 136.303 L639.973 136.303 L639.973 162.229 L635.714 162.229 L635.714 136.303 M635.714 126.21 L639.973 126.21 L639.973 131.604 L635.714 131.604 L635.714 126.21 Z" fill="#000000" fill-rule="nonzero" fill-opacity="1" /><path clip-path="url(#clip270)" d="M658.931 139.289 Q655.506 139.289 653.515 141.974 Q651.524 144.636 651.524 149.289 Q651.524 153.942 653.492 156.627 Q655.482 159.289 658.931 159.289 Q662.334 159.289 664.325 156.604 Q666.316 153.918 666.316 149.289 Q666.316 144.682 664.325 141.997 Q662.334 139.289 658.931 139.289 M658.931 135.678 Q664.487 135.678 667.658 139.289 Q670.83 142.9 670.83 149.289 Q670.83 155.655 667.658 159.289 Q664.487 162.9 658.931 162.9 Q653.353 162.9 650.181 159.289 Q647.033 155.655 647.033 149.289 Q647.033 142.9 650.181 139.289 Q653.353 135.678 658.931 135.678 Z" fill="#000000" fill-rule="nonzero" fill-opacity="1" /><path clip-path="url(#clip270)" d="M699.44 146.581 L699.44 162.229 L695.181 162.229 L695.181 146.719 Q695.181 143.039 693.746 141.21 Q692.311 139.382 689.441 139.382 Q685.991 139.382 684.001 141.581 Q682.01 143.78 682.01 147.576 L682.01 162.229 L677.728 162.229 L677.728 136.303 L682.01 136.303 L682.01 140.331 Q683.538 137.993 685.598 136.835 Q687.681 135.678 690.39 135.678 Q694.857 135.678 697.149 138.456 Q699.44 141.21 699.44 146.581 Z" fill="#000000" fill-rule="nonzero" fill-opacity="1" /><polyline clip-path="url(#clip270)" style="stroke:#e26f46; stroke-linecap:round; stroke-linejoin:round; stroke-width:4; stroke-opacity:1; fill:none" points="350.495,196.789 490.187,196.789 "/>
<path clip-path="url(#clip270)" d="M529.858 197.865 Q531.363 198.374 532.775 200.041 Q534.21 201.708 535.645 204.624 L540.39 214.069 L535.367 214.069 L530.946 205.203 Q529.233 201.731 527.613 200.596 Q526.015 199.462 523.238 199.462 L518.145 199.462 L518.145 214.069 L513.469 214.069 L513.469 179.509 L524.025 179.509 Q529.951 179.509 532.867 181.985 Q535.784 184.462 535.784 189.462 Q535.784 192.726 534.256 194.879 Q532.752 197.032 529.858 197.865 M518.145 183.351 L518.145 195.62 L524.025 195.62 Q527.404 195.62 529.117 194.069 Q530.853 192.495 530.853 189.462 Q530.853 186.43 529.117 184.902 Q527.404 183.351 524.025 183.351 L518.145 183.351 Z" fill="#000000" fill-rule="nonzero" fill-opacity="1" /><path clip-path="url(#clip270)" d="M566.27 200.041 L566.27 202.124 L546.687 202.124 Q546.964 206.522 549.326 208.837 Q551.71 211.129 555.946 211.129 Q558.4 211.129 560.691 210.527 Q563.006 209.925 565.275 208.721 L565.275 212.749 Q562.983 213.721 560.575 214.231 Q558.168 214.74 555.691 214.74 Q549.488 214.74 545.853 211.129 Q542.242 207.518 542.242 201.36 Q542.242 194.995 545.668 191.268 Q549.117 187.518 554.951 187.518 Q560.182 187.518 563.214 190.897 Q566.27 194.254 566.27 200.041 M562.011 198.791 Q561.964 195.296 560.043 193.212 Q558.145 191.129 554.997 191.129 Q551.432 191.129 549.279 193.143 Q547.15 195.157 546.826 198.814 L562.011 198.791 Z" fill="#000000" fill-rule="nonzero" fill-opacity="1" /><path clip-path="url(#clip270)" d="M586.386 178.05 L586.386 181.592 L582.311 181.592 Q580.02 181.592 579.117 182.518 Q578.237 183.444 578.237 185.851 L578.237 188.143 L585.251 188.143 L585.251 191.453 L578.237 191.453 L578.237 214.069 L573.955 214.069 L573.955 191.453 L569.881 191.453 L569.881 188.143 L573.955 188.143 L573.955 186.337 Q573.955 182.009 575.969 180.041 Q577.983 178.05 582.358 178.05 L586.386 178.05 Z" fill="#000000" fill-rule="nonzero" fill-opacity="1" /><path clip-path="url(#clip270)" d="M612.126 200.041 L612.126 202.124 L592.543 202.124 Q592.821 206.522 595.182 208.837 Q597.566 211.129 601.802 211.129 Q604.256 211.129 606.547 210.527 Q608.862 209.925 611.131 208.721 L611.131 212.749 Q608.839 213.721 606.432 214.231 Q604.024 214.74 601.547 214.74 Q595.344 214.74 591.71 211.129 Q588.098 207.518 588.098 201.36 Q588.098 194.995 591.524 191.268 Q594.973 187.518 600.807 187.518 Q606.038 187.518 609.071 190.897 Q612.126 194.254 612.126 200.041 M607.867 198.791 Q607.821 195.296 605.899 193.212 Q604.001 191.129 600.853 191.129 Q597.288 191.129 595.135 193.143 Q593.006 195.157 592.682 198.814 L607.867 198.791 Z" fill="#000000" fill-rule="nonzero" fill-opacity="1" /><path clip-path="url(#clip270)" d="M634.14 192.124 Q633.422 191.708 632.566 191.522 Q631.733 191.314 630.714 191.314 Q627.103 191.314 625.158 193.675 Q623.237 196.013 623.237 200.411 L623.237 214.069 L618.955 214.069 L618.955 188.143 L623.237 188.143 L623.237 192.171 Q624.58 189.809 626.733 188.675 Q628.885 187.518 631.964 187.518 Q632.404 187.518 632.936 187.587 Q633.469 187.634 634.117 187.749 L634.14 192.124 Z" fill="#000000" fill-rule="nonzero" fill-opacity="1" /><path clip-path="url(#clip270)" d="M659.742 200.041 L659.742 202.124 L640.158 202.124 Q640.436 206.522 642.797 208.837 Q645.182 211.129 649.418 211.129 Q651.871 211.129 654.163 210.527 Q656.478 209.925 658.746 208.721 L658.746 212.749 Q656.455 213.721 654.047 214.231 Q651.64 214.74 649.163 214.74 Q642.959 214.74 639.325 211.129 Q635.714 207.518 635.714 201.36 Q635.714 194.995 639.14 191.268 Q642.589 187.518 648.422 187.518 Q653.654 187.518 656.686 190.897 Q659.742 194.254 659.742 200.041 M655.482 198.791 Q655.436 195.296 653.515 193.212 Q651.617 191.129 648.469 191.129 Q644.904 191.129 642.751 193.143 Q640.621 195.157 640.297 198.814 L655.482 198.791 Z" fill="#000000" fill-rule="nonzero" fill-opacity="1" /><path clip-path="url(#clip270)" d="M688.283 198.421 L688.283 214.069 L684.024 214.069 L684.024 198.559 Q684.024 194.879 682.589 193.05 Q681.154 191.222 678.283 191.222 Q674.834 191.222 672.843 193.421 Q670.853 195.62 670.853 199.416 L670.853 214.069 L666.57 214.069 L666.57 188.143 L670.853 188.143 L670.853 192.171 Q672.38 189.833 674.441 188.675 Q676.524 187.518 679.232 187.518 Q683.7 187.518 685.991 190.296 Q688.283 193.05 688.283 198.421 Z" fill="#000000" fill-rule="nonzero" fill-opacity="1" /><path clip-path="url(#clip270)" d="M715.436 189.138 L715.436 193.12 Q713.63 192.124 711.802 191.638 Q709.996 191.129 708.144 191.129 Q704.001 191.129 701.709 193.768 Q699.417 196.384 699.417 201.129 Q699.417 205.874 701.709 208.513 Q704.001 211.129 708.144 211.129 Q709.996 211.129 711.802 210.643 Q713.63 210.133 715.436 209.138 L715.436 213.073 Q713.653 213.907 711.732 214.323 Q709.834 214.74 707.681 214.74 Q701.825 214.74 698.376 211.059 Q694.927 207.379 694.927 201.129 Q694.927 194.786 698.399 191.152 Q701.894 187.518 707.959 187.518 Q709.927 187.518 711.802 187.935 Q713.677 188.328 715.436 189.138 Z" fill="#000000" fill-rule="nonzero" fill-opacity="1" /><path clip-path="url(#clip270)" d="M745.019 200.041 L745.019 202.124 L725.436 202.124 Q725.714 206.522 728.075 208.837 Q730.459 211.129 734.695 211.129 Q737.149 211.129 739.44 210.527 Q741.755 209.925 744.024 208.721 L744.024 212.749 Q741.732 213.721 739.325 214.231 Q736.917 214.74 734.44 214.74 Q728.237 214.74 724.602 211.129 Q720.991 207.518 720.991 201.36 Q720.991 194.995 724.417 191.268 Q727.866 187.518 733.7 187.518 Q738.931 187.518 741.963 190.897 Q745.019 194.254 745.019 200.041 M740.76 198.791 Q740.713 195.296 738.792 193.212 Q736.894 191.129 733.746 191.129 Q730.181 191.129 728.028 193.143 Q725.899 195.157 725.575 198.814 L740.76 198.791 Z" fill="#000000" fill-rule="nonzero" fill-opacity="1" /></svg>
