<?xml version="1.0" encoding="utf-8"?>
<svg xmlns="http://www.w3.org/2000/svg" xmlns:xlink="http://www.w3.org/1999/xlink" width="600" height="400" viewBox="0 0 2400 1600">
<defs>
  <clipPath id="clip240">
    <rect x="0" y="0" width="2400" height="1600"/>
  </clipPath>
</defs>
<path clip-path="url(#clip240)" d="M0 1600 L2400 1600 L2400 0 L0 0  Z" fill="#ffffff" fill-rule="evenodd" fill-opacity="1"/>
<defs>
  <clipPath id="clip241">
    <rect x="480" y="0" width="1681" height="1600"/>
  </clipPath>
</defs>
<path clip-path="url(#clip240)" d="M210.746 1423.18 L2352.76 1423.18 L2352.76 47.2441 L210.746 47.2441  Z" fill="#ffffff" fill-rule="evenodd" fill-opacity="1"/>
<defs>
  <clipPath id="clip242">
    <rect x="210" y="47" width="2143" height="1377"/>
  </clipPath>
</defs>
<polyline clip-path="url(#clip242)" style="stroke:#000000; stroke-linecap:round; stroke-linejoin:round; stroke-width:2; stroke-opacity:0.1; fill:none" points="210.746,1423.18 210.746,47.2441 "/>
<polyline clip-path="url(#clip242)" style="stroke:#000000; stroke-linecap:round; stroke-linejoin:round; stroke-width:2; stroke-opacity:0.1; fill:none" points="746.248,1423.18 746.248,47.2441 "/>
<polyline clip-path="url(#clip242)" style="stroke:#000000; stroke-linecap:round; stroke-linejoin:round; stroke-width:2; stroke-opacity:0.1; fill:none" points="1281.75,1423.18 1281.75,47.2441 "/>
<polyline clip-path="url(#clip242)" style="stroke:#000000; stroke-linecap:round; stroke-linejoin:round; stroke-width:2; stroke-opacity:0.1; fill:none" points="1817.25,1423.18 1817.25,47.2441 "/>
<polyline clip-path="url(#clip242)" style="stroke:#000000; stroke-linecap:round; stroke-linejoin:round; stroke-width:2; stroke-opacity:0.1; fill:none" points="2352.76,1423.18 2352.76,47.2441 "/>
<polyline clip-path="url(#clip240)" style="stroke:#000000; stroke-linecap:round; stroke-linejoin:round; stroke-width:4; stroke-opacity:1; fill:none" points="210.746,1423.18 2352.76,1423.18 "/>
<polyline clip-path="url(#clip240)" style="stroke:#000000; stroke-linecap:round; stroke-linejoin:round; stroke-width:4; stroke-opacity:1; fill:none" points="210.746,1423.18 210.746,1404.28 "/>
<polyline clip-path="url(#clip240)" style="stroke:#000000; stroke-linecap:round; stroke-linejoin:round; stroke-width:4; stroke-opacity:1; fill:none" points="746.248,1423.18 746.248,1404.28 "/>
<polyline clip-path="url(#clip240)" style="stroke:#000000; stroke-linecap:round; stroke-linejoin:round; stroke-width:4; stroke-opacity:1; fill:none" points="1281.75,1423.18 1281.75,1404.28 "/>
<polyline clip-path="url(#clip240)" style="stroke:#000000; stroke-linecap:round; stroke-linejoin:round; stroke-width:4; stroke-opacity:1; fill:none" points="1817.25,1423.18 1817.25,1404.28 "/>
<polyline clip-path="url(#clip240)" style="stroke:#000000; stroke-linecap:round; stroke-linejoin:round; stroke-width:4; stroke-opacity:1; fill:none" points="2352.76,1423.18 2352.76,1404.28 "/>
<path clip-path="url(#clip240)" d="M157.274 1468.75 L186.95 1468.75 L186.95 1472.69 L157.274 1472.69 L157.274 1468.75 Z" fill="#000000" fill-rule="nonzero" fill-opacity="1" /><path clip-path="url(#clip240)" d="M197.852 1481.64 L205.491 1481.64 L205.491 1455.28 L197.181 1456.95 L197.181 1452.69 L205.445 1451.02 L210.121 1451.02 L210.121 1481.64 L217.76 1481.64 L217.76 1485.58 L197.852 1485.58 L197.852 1481.64 Z" fill="#000000" fill-rule="nonzero" fill-opacity="1" /><path clip-path="url(#clip240)" d="M227.204 1479.7 L232.088 1479.7 L232.088 1485.58 L227.204 1485.58 L227.204 1479.7 Z" fill="#000000" fill-rule="nonzero" fill-opacity="1" /><path clip-path="url(#clip240)" d="M252.273 1454.1 Q248.662 1454.1 246.834 1457.66 Q245.028 1461.2 245.028 1468.33 Q245.028 1475.44 246.834 1479.01 Q248.662 1482.55 252.273 1482.55 Q255.908 1482.55 257.713 1479.01 Q259.542 1475.44 259.542 1468.33 Q259.542 1461.2 257.713 1457.66 Q255.908 1454.1 252.273 1454.1 M252.273 1450.39 Q258.084 1450.39 261.139 1455 Q264.218 1459.58 264.218 1468.33 Q264.218 1477.06 261.139 1481.67 Q258.084 1486.25 252.273 1486.25 Q246.463 1486.25 243.385 1481.67 Q240.329 1477.06 240.329 1468.33 Q240.329 1459.58 243.385 1455 Q246.463 1450.39 252.273 1450.39 Z" fill="#000000" fill-rule="nonzero" fill-opacity="1" /><path clip-path="url(#clip240)" d="M693.274 1468.75 L722.95 1468.75 L722.95 1472.69 L693.274 1472.69 L693.274 1468.75 Z" fill="#000000" fill-rule="nonzero" fill-opacity="1" /><path clip-path="url(#clip240)" d="M743.042 1454.1 Q739.431 1454.1 737.603 1457.66 Q735.797 1461.2 735.797 1468.33 Q735.797 1475.44 737.603 1479.01 Q739.431 1482.55 743.042 1482.55 Q746.677 1482.55 748.482 1479.01 Q750.311 1475.44 750.311 1468.33 Q750.311 1461.2 748.482 1457.66 Q746.677 1454.1 743.042 1454.1 M743.042 1450.39 Q748.853 1450.39 751.908 1455 Q754.987 1459.58 754.987 1468.33 Q754.987 1477.06 751.908 1481.67 Q748.853 1486.25 743.042 1486.25 Q737.232 1486.25 734.154 1481.67 Q731.098 1477.06 731.098 1468.33 Q731.098 1459.58 734.154 1455 Q737.232 1450.39 743.042 1450.39 Z" fill="#000000" fill-rule="nonzero" fill-opacity="1" /><path clip-path="url(#clip240)" d="M763.204 1479.7 L768.089 1479.7 L768.089 1485.58 L763.204 1485.58 L763.204 1479.7 Z" fill="#000000" fill-rule="nonzero" fill-opacity="1" /><path clip-path="url(#clip240)" d="M778.32 1451.02 L796.676 1451.02 L796.676 1454.96 L782.602 1454.96 L782.602 1463.43 Q783.621 1463.08 784.639 1462.92 Q785.658 1462.73 786.676 1462.73 Q792.463 1462.73 795.843 1465.9 Q799.223 1469.08 799.223 1474.49 Q799.223 1480.07 795.75 1483.17 Q792.278 1486.25 785.959 1486.25 Q783.783 1486.25 781.514 1485.88 Q779.269 1485.51 776.862 1484.77 L776.862 1480.07 Q778.945 1481.2 781.167 1481.76 Q783.389 1482.32 785.866 1482.32 Q789.871 1482.32 792.209 1480.21 Q794.547 1478.1 794.547 1474.49 Q794.547 1470.88 792.209 1468.77 Q789.871 1466.67 785.866 1466.67 Q783.991 1466.67 782.116 1467.08 Q780.264 1467.5 778.32 1468.38 L778.32 1451.02 Z" fill="#000000" fill-rule="nonzero" fill-opacity="1" /><path clip-path="url(#clip240)" d="M1259.14 1454.1 Q1255.52 1454.1 1253.7 1457.66 Q1251.89 1461.2 1251.89 1468.33 Q1251.89 1475.44 1253.7 1479.01 Q1255.52 1482.55 1259.14 1482.55 Q1262.77 1482.55 1264.58 1479.01 Q1266.4 1475.44 1266.4 1468.33 Q1266.4 1461.2 1264.58 1457.66 Q1262.77 1454.1 1259.14 1454.1 M1259.14 1450.39 Q1264.95 1450.39 1268 1455 Q1271.08 1459.58 1271.08 1468.33 Q1271.08 1477.06 1268 1481.67 Q1264.95 1486.25 1259.14 1486.25 Q1253.33 1486.25 1250.25 1481.67 Q1247.19 1477.06 1247.19 1468.33 Q1247.19 1459.58 1250.25 1455 Q1253.33 1450.39 1259.14 1450.39 Z" fill="#000000" fill-rule="nonzero" fill-opacity="1" /><path clip-path="url(#clip240)" d="M1279.3 1479.7 L1284.18 1479.7 L1284.18 1485.58 L1279.3 1485.58 L1279.3 1479.7 Z" fill="#000000" fill-rule="nonzero" fill-opacity="1" /><path clip-path="url(#clip240)" d="M1304.37 1454.1 Q1300.76 1454.1 1298.93 1457.66 Q1297.12 1461.2 1297.12 1468.33 Q1297.12 1475.44 1298.93 1479.01 Q1300.76 1482.55 1304.37 1482.55 Q1308 1482.55 1309.81 1479.01 Q1311.64 1475.44 1311.64 1468.33 Q1311.64 1461.2 1309.81 1457.66 Q1308 1454.1 1304.37 1454.1 M1304.37 1450.39 Q1310.18 1450.39 1313.23 1455 Q1316.31 1459.58 1316.31 1468.33 Q1316.31 1477.06 1313.23 1481.67 Q1310.18 1486.25 1304.37 1486.25 Q1298.56 1486.25 1295.48 1481.67 Q1292.42 1477.06 1292.42 1468.33 Q1292.42 1459.58 1295.48 1455 Q1298.56 1450.39 1304.37 1450.39 Z" fill="#000000" fill-rule="nonzero" fill-opacity="1" /><path clip-path="url(#clip240)" d="M1795.14 1454.1 Q1791.52 1454.1 1789.7 1457.66 Q1787.89 1461.2 1787.89 1468.33 Q1787.89 1475.44 1789.7 1479.01 Q1791.52 1482.55 1795.14 1482.55 Q1798.77 1482.55 1800.58 1479.01 Q1802.4 1475.44 1802.4 1468.33 Q1802.4 1461.2 1800.58 1457.66 Q1798.77 1454.1 1795.14 1454.1 M1795.14 1450.39 Q1800.95 1450.39 1804 1455 Q1807.08 1459.58 1807.08 1468.33 Q1807.08 1477.06 1804 1481.67 Q1800.95 1486.25 1795.14 1486.25 Q1789.33 1486.25 1786.25 1481.67 Q1783.19 1477.06 1783.19 1468.33 Q1783.19 1459.58 1786.25 1455 Q1789.33 1450.39 1795.14 1450.39 Z" fill="#000000" fill-rule="nonzero" fill-opacity="1" /><path clip-path="url(#clip240)" d="M1815.3 1479.7 L1820.18 1479.7 L1820.18 1485.58 L1815.3 1485.58 L1815.3 1479.7 Z" fill="#000000" fill-rule="nonzero" fill-opacity="1" /><path clip-path="url(#clip240)" d="M1830.41 1451.02 L1848.77 1451.02 L1848.77 1454.96 L1834.7 1454.96 L1834.7 1463.43 Q1835.71 1463.08 1836.73 1462.92 Q1837.75 1462.73 1838.77 1462.73 Q1844.56 1462.73 1847.94 1465.9 Q1851.32 1469.08 1851.32 1474.49 Q1851.32 1480.07 1847.84 1483.17 Q1844.37 1486.25 1838.05 1486.25 Q1835.88 1486.25 1833.61 1485.88 Q1831.36 1485.51 1828.95 1484.77 L1828.95 1480.07 Q1831.04 1481.2 1833.26 1481.76 Q1835.48 1482.32 1837.96 1482.32 Q1841.96 1482.32 1844.3 1480.21 Q1846.64 1478.1 1846.64 1474.49 Q1846.64 1470.88 1844.3 1468.77 Q1841.96 1466.67 1837.96 1466.67 Q1836.08 1466.67 1834.21 1467.08 Q1832.36 1467.5 1830.41 1468.38 L1830.41 1451.02 Z" fill="#000000" fill-rule="nonzero" fill-opacity="1" /><path clip-path="url(#clip240)" d="M2319.91 1481.64 L2327.55 1481.64 L2327.55 1455.28 L2319.24 1456.95 L2319.24 1452.69 L2327.5 1451.02 L2332.18 1451.02 L2332.18 1481.64 L2339.82 1481.64 L2339.82 1485.58 L2319.91 1485.58 L2319.91 1481.64 Z" fill="#000000" fill-rule="nonzero" fill-opacity="1" /><path clip-path="url(#clip240)" d="M2349.26 1479.7 L2354.14 1479.7 L2354.14 1485.58 L2349.26 1485.58 L2349.26 1479.7 Z" fill="#000000" fill-rule="nonzero" fill-opacity="1" /><path clip-path="url(#clip240)" d="M2374.33 1454.1 Q2370.72 1454.1 2368.89 1457.66 Q2367.08 1461.2 2367.08 1468.33 Q2367.08 1475.44 2368.89 1479.01 Q2370.72 1482.55 2374.33 1482.55 Q2377.96 1482.55 2379.77 1479.01 Q2381.6 1475.44 2381.6 1468.33 Q2381.6 1461.2 2379.77 1457.66 Q2377.96 1454.1 2374.33 1454.1 M2374.33 1450.39 Q2380.14 1450.39 2383.2 1455 Q2386.27 1459.58 2386.27 1468.33 Q2386.27 1477.06 2383.2 1481.67 Q2380.14 1486.25 2374.33 1486.25 Q2368.52 1486.25 2365.44 1481.67 Q2362.39 1477.06 2362.39 1468.33 Q2362.39 1459.58 2365.44 1455 Q2368.52 1450.39 2374.33 1450.39 Z" fill="#000000" fill-rule="nonzero" fill-opacity="1" /><path clip-path="url(#clip240)" d="M1298.37 1532.4 L1285.47 1549.74 L1299.03 1568.04 L1292.13 1568.04 L1281.75 1554.04 L1271.37 1568.04 L1264.47 1568.04 L1278.31 1549.39 L1265.65 1532.4 L1272.55 1532.4 L1282.01 1545.1 L1291.46 1532.4 L1298.37 1532.4 Z" fill="#000000" fill-rule="nonzero" fill-opacity="1" /><polyline clip-path="url(#clip242)" style="stroke:#000000; stroke-linecap:round; stroke-linejoin:round; stroke-width:2; stroke-opacity:0.1; fill:none" points="210.746,1356.79 2352.76,1356.79 "/>
<polyline clip-path="url(#clip242)" style="stroke:#000000; stroke-linecap:round; stroke-linejoin:round; stroke-width:2; stroke-opacity:0.1; fill:none" points="210.746,1109.54 2352.76,1109.54 "/>
<polyline clip-path="url(#clip242)" style="stroke:#000000; stroke-linecap:round; stroke-linejoin:round; stroke-width:2; stroke-opacity:0.1; fill:none" points="210.746,862.299 2352.76,862.299 "/>
<polyline clip-path="url(#clip242)" style="stroke:#000000; stroke-linecap:round; stroke-linejoin:round; stroke-width:2; stroke-opacity:0.1; fill:none" points="210.746,615.054 2352.76,615.054 "/>
<polyline clip-path="url(#clip242)" style="stroke:#000000; stroke-linecap:round; stroke-linejoin:round; stroke-width:2; stroke-opacity:0.1; fill:none" points="210.746,367.81 2352.76,367.81 "/>
<polyline clip-path="url(#clip242)" style="stroke:#000000; stroke-linecap:round; stroke-linejoin:round; stroke-width:2; stroke-opacity:0.1; fill:none" points="210.746,120.565 2352.76,120.565 "/>
<polyline clip-path="url(#clip240)" style="stroke:#000000; stroke-linecap:round; stroke-linejoin:round; stroke-width:4; stroke-opacity:1; fill:none" points="210.746,1423.18 210.746,47.2441 "/>
<polyline clip-path="url(#clip240)" style="stroke:#000000; stroke-linecap:round; stroke-linejoin:round; stroke-width:4; stroke-opacity:1; fill:none" points="210.746,1356.79 229.644,1356.79 "/>
<polyline clip-path="url(#clip240)" style="stroke:#000000; stroke-linecap:round; stroke-linejoin:round; stroke-width:4; stroke-opacity:1; fill:none" points="210.746,1109.54 229.644,1109.54 "/>
<polyline clip-path="url(#clip240)" style="stroke:#000000; stroke-linecap:round; stroke-linejoin:round; stroke-width:4; stroke-opacity:1; fill:none" points="210.746,862.299 229.644,862.299 "/>
<polyline clip-path="url(#clip240)" style="stroke:#000000; stroke-linecap:round; stroke-linejoin:round; stroke-width:4; stroke-opacity:1; fill:none" points="210.746,615.054 229.644,615.054 "/>
<polyline clip-path="url(#clip240)" style="stroke:#000000; stroke-linecap:round; stroke-linejoin:round; stroke-width:4; stroke-opacity:1; fill:none" points="210.746,367.81 229.644,367.81 "/>
<polyline clip-path="url(#clip240)" style="stroke:#000000; stroke-linecap:round; stroke-linejoin:round; stroke-width:4; stroke-opacity:1; fill:none" points="210.746,120.565 229.644,120.565 "/>
<path clip-path="url(#clip240)" d="M114.631 1357.24 L144.306 1357.24 L144.306 1361.17 L114.631 1361.17 L114.631 1357.24 Z" fill="#000000" fill-rule="nonzero" fill-opacity="1" /><path clip-path="url(#clip240)" d="M158.427 1370.13 L174.746 1370.13 L174.746 1374.07 L152.802 1374.07 L152.802 1370.13 Q155.464 1367.38 160.047 1362.75 Q164.653 1358.1 165.834 1356.75 Q168.079 1354.23 168.959 1352.49 Q169.862 1350.73 169.862 1349.04 Q169.862 1346.29 167.917 1344.55 Q165.996 1342.82 162.894 1342.82 Q160.695 1342.82 158.241 1343.58 Q155.811 1344.35 153.033 1345.9 L153.033 1341.17 Q155.857 1340.04 158.311 1339.46 Q160.765 1338.88 162.802 1338.88 Q168.172 1338.88 171.366 1341.57 Q174.561 1344.25 174.561 1348.74 Q174.561 1350.87 173.751 1352.79 Q172.964 1354.69 170.857 1357.29 Q170.278 1357.96 167.177 1361.17 Q164.075 1364.37 158.427 1370.13 Z" fill="#000000" fill-rule="nonzero" fill-opacity="1" /><path clip-path="url(#clip240)" d="M114.26 1109.99 L143.936 1109.99 L143.936 1113.93 L114.26 1113.93 L114.26 1109.99 Z" fill="#000000" fill-rule="nonzero" fill-opacity="1" /><path clip-path="url(#clip240)" d="M154.839 1122.89 L162.477 1122.89 L162.477 1096.52 L154.167 1098.19 L154.167 1093.93 L162.431 1092.26 L167.107 1092.26 L167.107 1122.89 L174.746 1122.89 L174.746 1126.82 L154.839 1126.82 L154.839 1122.89 Z" fill="#000000" fill-rule="nonzero" fill-opacity="1" /><path clip-path="url(#clip240)" d="M162.802 848.097 Q159.19 848.097 157.362 851.662 Q155.556 855.204 155.556 862.333 Q155.556 869.44 157.362 873.005 Q159.19 876.546 162.802 876.546 Q166.436 876.546 168.241 873.005 Q170.07 869.44 170.07 862.333 Q170.07 855.204 168.241 851.662 Q166.436 848.097 162.802 848.097 M162.802 844.394 Q168.612 844.394 171.667 849 Q174.746 853.583 174.746 862.333 Q174.746 871.06 171.667 875.667 Q168.612 880.25 162.802 880.25 Q156.991 880.25 153.913 875.667 Q150.857 871.06 150.857 862.333 Q150.857 853.583 153.913 849 Q156.991 844.394 162.802 844.394 Z" fill="#000000" fill-rule="nonzero" fill-opacity="1" /><path clip-path="url(#clip240)" d="M154.839 628.399 L162.477 628.399 L162.477 602.033 L154.167 603.7 L154.167 599.441 L162.431 597.774 L167.107 597.774 L167.107 628.399 L174.746 628.399 L174.746 632.334 L154.839 632.334 L154.839 628.399 Z" fill="#000000" fill-rule="nonzero" fill-opacity="1" /><path clip-path="url(#clip240)" d="M158.427 381.154 L174.746 381.154 L174.746 385.09 L152.802 385.09 L152.802 381.154 Q155.464 378.4 160.047 373.77 Q164.653 369.117 165.834 367.775 Q168.079 365.252 168.959 363.516 Q169.862 361.756 169.862 360.067 Q169.862 357.312 167.917 355.576 Q165.996 353.84 162.894 353.84 Q160.695 353.84 158.241 354.604 Q155.811 355.367 153.033 356.918 L153.033 352.196 Q155.857 351.062 158.311 350.483 Q160.765 349.905 162.802 349.905 Q168.172 349.905 171.366 352.59 Q174.561 355.275 174.561 359.766 Q174.561 361.895 173.751 363.817 Q172.964 365.715 170.857 368.307 Q170.278 368.979 167.177 372.196 Q164.075 375.391 158.427 381.154 Z" fill="#000000" fill-rule="nonzero" fill-opacity="1" /><path clip-path="url(#clip240)" d="M167.616 119.211 Q170.973 119.928 172.848 122.197 Q174.746 124.465 174.746 127.799 Q174.746 132.914 171.227 135.715 Q167.709 138.516 161.227 138.516 Q159.052 138.516 156.737 138.076 Q154.445 137.66 151.991 136.803 L151.991 132.289 Q153.936 133.424 156.251 134.002 Q158.565 134.581 161.089 134.581 Q165.487 134.581 167.778 132.845 Q170.093 131.109 170.093 127.799 Q170.093 124.743 167.94 123.03 Q165.811 121.294 161.991 121.294 L157.964 121.294 L157.964 117.452 L162.177 117.452 Q165.626 117.452 167.454 116.086 Q169.283 114.697 169.283 112.104 Q169.283 109.442 167.385 108.03 Q165.51 106.595 161.991 106.595 Q160.07 106.595 157.871 107.012 Q155.672 107.428 153.033 108.308 L153.033 104.141 Q155.695 103.401 158.01 103.03 Q160.348 102.66 162.408 102.66 Q167.732 102.66 170.834 105.09 Q173.936 107.498 173.936 111.618 Q173.936 114.489 172.292 116.479 Q170.649 118.447 167.616 119.211 Z" fill="#000000" fill-rule="nonzero" fill-opacity="1" /><path clip-path="url(#clip240)" d="M14.479 785.055 L27.6241 785.055 Q27.6241 778.722 32.4939 774.488 Q37.4592 770.128 46.212 770.128 Q54.9649 770.128 59.9301 774.488 Q64.7999 778.722 64.7999 785.055 L77.5631 785.055 L77.5631 790.88 L64.7999 790.88 Q64.7999 797.214 59.9301 801.479 Q54.9649 805.808 46.212 805.808 Q37.4592 805.808 32.4939 801.479 Q27.6241 797.214 27.6241 790.88 L14.479 790.88 L14.479 785.055 M59.58 785.055 Q59.58 781.459 56.3017 779.008 Q52.6414 776.334 46.212 776.303 Q39.8463 776.271 36.1224 779.008 Q32.844 781.459 32.844 785.055 L59.58 785.055 M59.58 790.88 L32.844 790.88 Q32.844 794.477 36.1224 796.896 Q39.8463 799.665 46.212 799.633 Q52.6414 799.601 56.3017 796.896 Q59.58 794.477 59.58 790.88 Z" fill="#000000" fill-rule="nonzero" fill-opacity="1" /><path clip-path="url(#clip240)" d="M16.4842 754.691 L34.149 754.691 L34.149 760.102 L16.4842 760.102 L16.4842 754.691 Z" fill="#000000" fill-rule="nonzero" fill-opacity="1" /><path clip-path="url(#clip240)" d="M14.5426 728.242 Q21.8632 732.507 29.0246 734.575 Q36.186 736.644 43.5384 736.644 Q50.8908 736.644 58.1159 734.575 Q65.3091 732.475 72.5979 728.242 L72.5979 733.334 Q65.1182 738.108 57.8931 740.496 Q50.668 742.851 43.5384 742.851 Q36.4406 742.851 29.2474 740.496 Q22.0542 738.14 14.5426 733.334 L14.5426 728.242 Z" fill="#000000" fill-rule="nonzero" fill-opacity="1" /><path clip-path="url(#clip240)" d="M28.3562 687.246 L45.7028 700.137 L64.0042 686.578 L64.0042 693.485 L49.9996 703.861 L64.0042 714.237 L64.0042 721.144 L45.3526 707.298 L28.3562 719.966 L28.3562 713.059 L41.0558 703.606 L28.3562 694.153 L28.3562 687.246 Z" fill="#000000" fill-rule="nonzero" fill-opacity="1" /><path clip-path="url(#clip240)" d="M14.5426 679.226 L14.5426 674.133 Q22.0542 669.359 29.2474 667.003 Q36.4406 664.616 43.5384 664.616 Q50.668 664.616 57.8931 667.003 Q65.1182 669.359 72.5979 674.133 L72.5979 679.226 Q65.3091 674.992 58.1159 672.924 Q50.8908 670.823 43.5384 670.823 Q36.186 670.823 29.0246 672.924 Q21.8632 674.992 14.5426 679.226 Z" fill="#000000" fill-rule="nonzero" fill-opacity="1" /><polyline clip-path="url(#clip242)" style="stroke:#009af9; stroke-linecap:round; stroke-linejoin:round; stroke-width:4; stroke-opacity:1; fill:none" points="210.746,885.886 232.382,933.787 254.019,1002.32 275.655,1045.78 297.292,1107.25 318.928,1145.52 340.565,1198.4 362.201,1245.37 383.838,1273.2 405.474,1309.44 427.111,1329.77 448.747,1354.36 470.384,1371.71 492.02,1379.19 513.656,1384.24 535.293,1383.51 556.929,1376.33 578.566,1367.56 600.202,1348.56 621.839,1322.8 643.475,1302.03 665.112,1265.78 686.748,1238.4 708.385,1192.87 730.021,1142.44 751.658,1106.39 773.294,1049.11 794.93,1009.06 816.567,946.666 838.203,903.822 859.84,838.196 881.476,771.558 903.113,726.92 924.749,660.169 946.386,616.106 968.022,551.183 989.659,488.265 1011.3,447.755 1032.93,389.61 1054.57,352.853 1076.2,301.145 1097.84,254.018 1119.48,225.385 1141.11,186.937 1162.75,164.475 1184.39,135.791 1206.02,120.133 1227.66,102.018 1249.3,90.5068 1270.93,86.5607 1292.57,86.2766 1314.21,89.8434 1335.84,100.785 1357.48,118.332 1379.12,133.611 1400.75,161.725 1422.39,183.808 1444.02,221.687 1465.66,249.941 1487.3,296.499 1508.93,347.638 1530.57,384.017 1552.21,441.592 1573.84,481.722 1595.48,544.072 1617.12,608.426 1638.75,652.109 1660.39,718.292 1682.03,762.55 1703.66,828.619 1725.3,893.677 1746.93,936.142 1768.57,997.964 1790.21,1037.64 1811.84,1094.35 1833.48,1130.02 1855.12,1179.88 1876.75,1224.84 1898.39,1251.84 1920.03,1287.53 1941.66,1307.91 1963.3,1333.1 1984.94,1351.53 2006.57,1359.93 2028.21,1366.54 2049.85,1366.89 2071.48,1361.26 2093.12,1353.41 2114.75,1335.5 2136.39,1310.33 2158.03,1289.61 2179.66,1252.82 2201.3,1224.61 2222.94,1177.05 2244.57,1123.63 2266.21,1084.99 2287.85,1022.89 2309.48,979.024 2331.12,910.289 2352.76,885.886 "/>
<polyline clip-path="url(#clip242)" style="stroke:#e26f46; stroke-linecap:round; stroke-linejoin:round; stroke-width:4; stroke-opacity:1; fill:none" points="210.746,862.299 232.382,924.032 254.019,983.372 275.655,1039.86 297.292,1093.05 318.928,1142.56 340.565,1188.02 362.201,1229.11 383.838,1265.53 405.474,1297.04 427.111,1323.45 448.747,1344.59 470.384,1360.33 492.02,1370.62 513.656,1375.41 535.293,1374.73 556.929,1368.62 578.566,1357.17 600.202,1340.54 621.839,1318.88 643.475,1292.42 665.112,1261.4 686.748,1226.09 708.385,1186.81 730.021,1143.9 751.658,1097.71 773.294,1048.64 794.93,997.076 816.567,943.454 838.203,888.201 859.84,831.762 881.476,774.584 903.113,717.122 924.749,659.827 946.386,603.148 968.022,547.527 989.659,493.396 1011.3,441.174 1032.93,391.264 1054.57,344.051 1076.2,299.895 1097.84,259.136 1119.48,222.084 1141.11,189.022 1162.75,160.203 1184.39,135.845 1206.02,116.132 1227.66,101.216 1249.3,91.2085 1270.93,86.1857 1292.57,86.1857 1314.21,91.2085 1335.84,101.216 1357.48,116.132 1379.12,135.845 1400.75,160.203 1422.39,189.022 1444.02,222.084 1465.66,259.136 1487.3,299.895 1508.93,344.051 1530.57,391.264 1552.21,441.174 1573.84,493.396 1595.48,547.527 1617.12,603.148 1638.75,659.827 1660.39,717.122 1682.03,774.584 1703.66,831.762 1725.3,888.201 1746.93,943.454 1768.57,997.076 1790.21,1048.64 1811.84,1097.71 1833.48,1143.9 1855.12,1186.81 1876.75,1226.09 1898.39,1261.4 1920.03,1292.42 1941.66,1318.88 1963.3,1340.54 1984.94,1357.17 2006.57,1368.62 2028.21,1374.73 2049.85,1375.41 2071.48,1370.62 2093.12,1360.33 2114.75,1344.59 2136.39,1323.45 2158.03,1297.04 2179.66,1265.53 2201.3,1229.11 2222.94,1188.02 2244.57,1142.56 2266.21,1093.05 2287.85,1039.86 2309.48,983.372 2331.12,924.032 2352.76,862.299 "/>
<path clip-path="url(#clip240)" d="M1829.91 248.629 L2281.36 248.629 L2281.36 93.1086 L1829.91 93.1086  Z" fill="#ffffff" fill-rule="evenodd" fill-opacity="1"/>
<polyline clip-path="url(#clip240)" style="stroke:#000000; stroke-linecap:round; stroke-linejoin:round; stroke-width:4; stroke-opacity:1; fill:none" points="1829.91,248.629 2281.36,248.629 2281.36,93.1086 1829.91,93.1086 1829.91,248.629 "/>
<polyline clip-path="url(#clip240)" style="stroke:#009af9; stroke-linecap:round; stroke-linejoin:round; stroke-width:4; stroke-opacity:1; fill:none" points="1853.71,144.949 1996.51,144.949 "/>
<path clip-path="url(#clip240)" d="M2024.99 131.511 L2024.99 158.386 L2030.64 158.386 Q2037.79 158.386 2041.1 155.145 Q2044.43 151.905 2044.43 144.914 Q2044.43 137.969 2041.1 134.752 Q2037.79 131.511 2030.64 131.511 L2024.99 131.511 M2020.31 127.669 L2029.92 127.669 Q2039.96 127.669 2044.66 131.858 Q2049.36 136.025 2049.36 144.914 Q2049.36 153.849 2044.64 158.039 Q2039.92 162.229 2029.92 162.229 L2020.31 162.229 L2020.31 127.669 Z" fill="#000000" fill-rule="nonzero" fill-opacity="1" /><path clip-path="url(#clip240)" d="M2078.81 148.201 L2078.81 150.284 L2059.22 150.284 Q2059.5 154.682 2061.86 156.997 Q2064.25 159.289 2068.48 159.289 Q2070.94 159.289 2073.23 158.687 Q2075.54 158.085 2077.81 156.881 L2077.81 160.909 Q2075.52 161.881 2073.11 162.391 Q2070.7 162.9 2068.23 162.9 Q2062.02 162.9 2058.39 159.289 Q2054.78 155.678 2054.78 149.52 Q2054.78 143.155 2058.2 139.428 Q2061.65 135.678 2067.49 135.678 Q2072.72 135.678 2075.75 139.057 Q2078.81 142.414 2078.81 148.201 M2074.55 146.951 Q2074.5 143.456 2072.58 141.372 Q2070.68 139.289 2067.53 139.289 Q2063.97 139.289 2061.82 141.303 Q2059.69 143.317 2059.36 146.974 L2074.55 146.951 Z" fill="#000000" fill-rule="nonzero" fill-opacity="1" /><path clip-path="url(#clip240)" d="M2100.82 140.284 Q2100.1 139.868 2099.25 139.682 Q2098.41 139.474 2097.39 139.474 Q2093.78 139.474 2091.84 141.835 Q2089.92 144.173 2089.92 148.571 L2089.92 162.229 L2085.64 162.229 L2085.64 136.303 L2089.92 136.303 L2089.92 140.331 Q2091.26 137.969 2093.41 136.835 Q2095.57 135.678 2098.64 135.678 Q2099.08 135.678 2099.62 135.747 Q2100.15 135.794 2100.8 135.909 L2100.82 140.284 Z" fill="#000000" fill-rule="nonzero" fill-opacity="1" /><path clip-path="url(#clip240)" d="M2105.29 136.303 L2109.55 136.303 L2109.55 162.229 L2105.29 162.229 L2105.29 136.303 M2105.29 126.21 L2109.55 126.21 L2109.55 131.604 L2105.29 131.604 L2105.29 126.21 Z" fill="#000000" fill-rule="nonzero" fill-opacity="1" /><path clip-path="url(#clip240)" d="M2115.4 136.303 L2119.92 136.303 L2128.02 158.062 L2136.12 136.303 L2140.63 136.303 L2130.91 162.229 L2125.13 162.229 L2115.4 136.303 Z" fill="#000000" fill-rule="nonzero" fill-opacity="1" /><path clip-path="url(#clip240)" d="M2158.3 149.196 Q2153.13 149.196 2151.14 150.377 Q2149.15 151.557 2149.15 154.405 Q2149.15 156.673 2150.63 158.016 Q2152.14 159.335 2154.71 159.335 Q2158.25 159.335 2160.38 156.835 Q2162.53 154.312 2162.53 150.145 L2162.53 149.196 L2158.3 149.196 M2166.79 147.437 L2166.79 162.229 L2162.53 162.229 L2162.53 158.293 Q2161.07 160.655 2158.9 161.789 Q2156.72 162.9 2153.57 162.9 Q2149.59 162.9 2147.23 160.678 Q2144.89 158.432 2144.89 154.682 Q2144.89 150.307 2147.81 148.085 Q2150.75 145.863 2156.56 145.863 L2162.53 145.863 L2162.53 145.446 Q2162.53 142.507 2160.59 140.909 Q2158.67 139.289 2155.17 139.289 Q2152.95 139.289 2150.84 139.821 Q2148.74 140.354 2146.79 141.419 L2146.79 137.483 Q2149.13 136.581 2151.33 136.141 Q2153.53 135.678 2155.61 135.678 Q2161.24 135.678 2164.01 138.594 Q2166.79 141.511 2166.79 147.437 Z" fill="#000000" fill-rule="nonzero" fill-opacity="1" /><path clip-path="url(#clip240)" d="M2179.78 128.942 L2179.78 136.303 L2188.55 136.303 L2188.55 139.613 L2179.78 139.613 L2179.78 153.687 Q2179.78 156.858 2180.63 157.761 Q2181.51 158.664 2184.18 158.664 L2188.55 158.664 L2188.55 162.229 L2184.18 162.229 Q2179.25 162.229 2177.37 160.4 Q2175.5 158.548 2175.5 153.687 L2175.5 139.613 L2172.37 139.613 L2172.37 136.303 L2175.5 136.303 L2175.5 128.942 L2179.78 128.942 Z" fill="#000000" fill-rule="nonzero" fill-opacity="1" /><path clip-path="url(#clip240)" d="M2194.15 136.303 L2198.41 136.303 L2198.41 162.229 L2194.15 162.229 L2194.15 136.303 M2194.15 126.21 L2198.41 126.21 L2198.41 131.604 L2194.15 131.604 L2194.15 126.21 Z" fill="#000000" fill-rule="nonzero" fill-opacity="1" /><path clip-path="url(#clip240)" d="M2204.27 136.303 L2208.78 136.303 L2216.88 158.062 L2224.99 136.303 L2229.5 136.303 L2219.78 162.229 L2213.99 162.229 L2204.27 136.303 Z" fill="#000000" fill-rule="nonzero" fill-opacity="1" /><path clip-path="url(#clip240)" d="M2257.56 148.201 L2257.56 150.284 L2237.97 150.284 Q2238.25 154.682 2240.61 156.997 Q2243 159.289 2247.23 159.289 Q2249.69 159.289 2251.98 158.687 Q2254.29 158.085 2256.56 156.881 L2256.56 160.909 Q2254.27 161.881 2251.86 162.391 Q2249.45 162.9 2246.98 162.9 Q2240.77 162.9 2237.14 159.289 Q2233.53 155.678 2233.53 149.52 Q2233.53 143.155 2236.95 139.428 Q2240.4 135.678 2246.24 135.678 Q2251.47 135.678 2254.5 139.057 Q2257.56 142.414 2257.56 148.201 M2253.3 146.951 Q2253.25 143.456 2251.33 141.372 Q2249.43 139.289 2246.28 139.289 Q2242.72 139.289 2240.56 141.303 Q2238.44 143.317 2238.11 146.974 L2253.3 146.951 Z" fill="#000000" fill-rule="nonzero" fill-opacity="1" /><polyline clip-path="url(#clip240)" style="stroke:#e26f46; stroke-linecap:round; stroke-linejoin:round; stroke-width:4; stroke-opacity:1; fill:none" points="1853.71,196.789 1996.51,196.789 "/>
<path clip-path="url(#clip240)" d="M2036.7 197.865 Q2038.2 198.374 2039.62 200.041 Q2041.05 201.708 2042.49 204.624 L2047.23 214.069 L2042.21 214.069 L2037.79 205.203 Q2036.08 201.731 2034.45 200.596 Q2032.86 199.462 2030.08 199.462 L2024.99 199.462 L2024.99 214.069 L2020.31 214.069 L2020.31 179.509 L2030.87 179.509 Q2036.79 179.509 2039.71 181.985 Q2042.63 184.462 2042.63 189.462 Q2042.63 192.726 2041.1 194.879 Q2039.59 197.032 2036.7 197.865 M2024.99 183.351 L2024.99 195.62 L2030.87 195.62 Q2034.25 195.62 2035.96 194.069 Q2037.7 192.495 2037.7 189.462 Q2037.7 186.43 2035.96 184.902 Q2034.25 183.351 2030.87 183.351 L2024.99 183.351 Z" fill="#000000" fill-rule="nonzero" fill-opacity="1" /><path clip-path="url(#clip240)" d="M2073.11 200.041 L2073.11 202.124 L2053.53 202.124 Q2053.81 206.522 2056.17 208.837 Q2058.55 211.129 2062.79 211.129 Q2065.24 211.129 2067.53 210.527 Q2069.85 209.925 2072.12 208.721 L2072.12 212.749 Q2069.82 213.721 2067.42 214.231 Q2065.01 214.74 2062.53 214.74 Q2056.33 214.74 2052.7 211.129 Q2049.08 207.518 2049.08 201.36 Q2049.08 194.995 2052.51 191.268 Q2055.96 187.518 2061.79 187.518 Q2067.02 187.518 2070.06 190.897 Q2073.11 194.254 2073.11 200.041 M2068.85 198.791 Q2068.81 195.296 2066.89 193.212 Q2064.99 191.129 2061.84 191.129 Q2058.27 191.129 2056.12 193.143 Q2053.99 195.157 2053.67 198.814 L2068.85 198.791 Z" fill="#000000" fill-rule="nonzero" fill-opacity="1" /><path clip-path="url(#clip240)" d="M2093.23 178.05 L2093.23 181.592 L2089.15 181.592 Q2086.86 181.592 2085.96 182.518 Q2085.08 183.444 2085.08 185.851 L2085.08 188.143 L2092.09 188.143 L2092.09 191.453 L2085.08 191.453 L2085.08 214.069 L2080.8 214.069 L2080.8 191.453 L2076.72 191.453 L2076.72 188.143 L2080.8 188.143 L2080.8 186.337 Q2080.8 182.009 2082.81 180.041 Q2084.82 178.05 2089.2 178.05 L2093.23 178.05 Z" fill="#000000" fill-rule="nonzero" fill-opacity="1" /><path clip-path="url(#clip240)" d="M2118.97 200.041 L2118.97 202.124 L2099.39 202.124 Q2099.66 206.522 2102.02 208.837 Q2104.41 211.129 2108.64 211.129 Q2111.1 211.129 2113.39 210.527 Q2115.7 209.925 2117.97 208.721 L2117.97 212.749 Q2115.68 213.721 2113.27 214.231 Q2110.87 214.74 2108.39 214.74 Q2102.19 214.74 2098.55 211.129 Q2094.94 207.518 2094.94 201.36 Q2094.94 194.995 2098.37 191.268 Q2101.82 187.518 2107.65 187.518 Q2112.88 187.518 2115.91 190.897 Q2118.97 194.254 2118.97 200.041 M2114.71 198.791 Q2114.66 195.296 2112.74 193.212 Q2110.84 191.129 2107.7 191.129 Q2104.13 191.129 2101.98 193.143 Q2099.85 195.157 2099.52 198.814 L2114.71 198.791 Z" fill="#000000" fill-rule="nonzero" fill-opacity="1" /><path clip-path="url(#clip240)" d="M2140.98 192.124 Q2140.26 191.708 2139.41 191.522 Q2138.57 191.314 2137.56 191.314 Q2133.95 191.314 2132 193.675 Q2130.08 196.013 2130.08 200.411 L2130.08 214.069 L2125.8 214.069 L2125.8 188.143 L2130.08 188.143 L2130.08 192.171 Q2131.42 189.809 2133.57 188.675 Q2135.73 187.518 2138.81 187.518 Q2139.25 187.518 2139.78 187.587 Q2140.31 187.634 2140.96 187.749 L2140.98 192.124 Z" fill="#000000" fill-rule="nonzero" fill-opacity="1" /><path clip-path="url(#clip240)" d="M2166.58 200.041 L2166.58 202.124 L2147 202.124 Q2147.28 206.522 2149.64 208.837 Q2152.02 211.129 2156.26 211.129 Q2158.71 211.129 2161.01 210.527 Q2163.32 209.925 2165.59 208.721 L2165.59 212.749 Q2163.3 213.721 2160.89 214.231 Q2158.48 214.74 2156.01 214.74 Q2149.8 214.74 2146.17 211.129 Q2142.56 207.518 2142.56 201.36 Q2142.56 194.995 2145.98 191.268 Q2149.43 187.518 2155.26 187.518 Q2160.5 187.518 2163.53 190.897 Q2166.58 194.254 2166.58 200.041 M2162.32 198.791 Q2162.28 195.296 2160.36 193.212 Q2158.46 191.129 2155.31 191.129 Q2151.75 191.129 2149.59 193.143 Q2147.46 195.157 2147.14 198.814 L2162.32 198.791 Z" fill="#000000" fill-rule="nonzero" fill-opacity="1" /><path clip-path="url(#clip240)" d="M2195.13 198.421 L2195.13 214.069 L2190.87 214.069 L2190.87 198.559 Q2190.87 194.879 2189.43 193.05 Q2188 191.222 2185.13 191.222 Q2181.68 191.222 2179.69 193.421 Q2177.69 195.62 2177.69 199.416 L2177.69 214.069 L2173.41 214.069 L2173.41 188.143 L2177.69 188.143 L2177.69 192.171 Q2179.22 189.833 2181.28 188.675 Q2183.37 187.518 2186.07 187.518 Q2190.54 187.518 2192.83 190.296 Q2195.13 193.05 2195.13 198.421 Z" fill="#000000" fill-rule="nonzero" fill-opacity="1" /><path clip-path="url(#clip240)" d="M2222.28 189.138 L2222.28 193.12 Q2220.47 192.124 2218.64 191.638 Q2216.84 191.129 2214.99 191.129 Q2210.84 191.129 2208.55 193.768 Q2206.26 196.384 2206.26 201.129 Q2206.26 205.874 2208.55 208.513 Q2210.84 211.129 2214.99 211.129 Q2216.84 211.129 2218.64 210.643 Q2220.47 210.133 2222.28 209.138 L2222.28 213.073 Q2220.5 213.907 2218.57 214.323 Q2216.68 214.74 2214.52 214.74 Q2208.67 214.74 2205.22 211.059 Q2201.77 207.379 2201.77 201.129 Q2201.77 194.786 2205.24 191.152 Q2208.74 187.518 2214.8 187.518 Q2216.77 187.518 2218.64 187.935 Q2220.52 188.328 2222.28 189.138 Z" fill="#000000" fill-rule="nonzero" fill-opacity="1" /><path clip-path="url(#clip240)" d="M2251.86 200.041 L2251.86 202.124 L2232.28 202.124 Q2232.56 206.522 2234.92 208.837 Q2237.3 211.129 2241.54 211.129 Q2243.99 211.129 2246.28 210.527 Q2248.6 209.925 2250.87 208.721 L2250.87 212.749 Q2248.57 213.721 2246.17 214.231 Q2243.76 214.74 2241.28 214.74 Q2235.08 214.74 2231.44 211.129 Q2227.83 207.518 2227.83 201.36 Q2227.83 194.995 2231.26 191.268 Q2234.71 187.518 2240.54 187.518 Q2245.77 187.518 2248.81 190.897 Q2251.86 194.254 2251.86 200.041 M2247.6 198.791 Q2247.56 195.296 2245.63 193.212 Q2243.74 191.129 2240.59 191.129 Q2237.02 191.129 2234.87 193.143 Q2232.74 195.157 2232.42 198.814 L2247.6 198.791 Z" fill="#000000" fill-rule="nonzero" fill-opacity="1" /></svg>
