<?xml version="1.0" encoding="utf-8"?>
<svg xmlns="http://www.w3.org/2000/svg" xmlns:xlink="http://www.w3.org/1999/xlink" width="600" height="400" viewBox="0 0 2400 1600">
<defs>
  <clipPath id="clip770">
    <rect x="0" y="0" width="2400" height="1600"/>
  </clipPath>
</defs>
<path clip-path="url(#clip770)" d="M0 1600 L2400 1600 L2400 0 L0 0  Z" fill="#ffffff" fill-rule="evenodd" fill-opacity="1"/>
<defs>
  <clipPath id="clip771">
    <rect x="480" y="0" width="1681" height="1600"/>
  </clipPath>
</defs>
<path clip-path="url(#clip770)" d="M257.366 1423.18 L2352.76 1423.18 L2352.76 47.2441 L257.366 47.2441  Z" fill="#ffffff" fill-rule="evenodd" fill-opacity="1"/>
<defs>
  <clipPath id="clip772">
    <rect x="257" y="47" width="2096" height="1377"/>
  </clipPath>
</defs>
<polyline clip-path="url(#clip772)" style="stroke:#000000; stroke-linecap:round; stroke-linejoin:round; stroke-width:2; stroke-opacity:0.1; fill:none" points="257.366,1423.18 257.366,47.2441 "/>
<polyline clip-path="url(#clip772)" style="stroke:#000000; stroke-linecap:round; stroke-linejoin:round; stroke-width:2; stroke-opacity:0.1; fill:none" points="781.214,1423.18 781.214,47.2441 "/>
<polyline clip-path="url(#clip772)" style="stroke:#000000; stroke-linecap:round; stroke-linejoin:round; stroke-width:2; stroke-opacity:0.1; fill:none" points="1305.06,1423.18 1305.06,47.2441 "/>
<polyline clip-path="url(#clip772)" style="stroke:#000000; stroke-linecap:round; stroke-linejoin:round; stroke-width:2; stroke-opacity:0.1; fill:none" points="1828.91,1423.18 1828.91,47.2441 "/>
<polyline clip-path="url(#clip772)" style="stroke:#000000; stroke-linecap:round; stroke-linejoin:round; stroke-width:2; stroke-opacity:0.1; fill:none" points="2352.76,1423.18 2352.76,47.2441 "/>
<polyline clip-path="url(#clip770)" style="stroke:#000000; stroke-linecap:round; stroke-linejoin:round; stroke-width:4; stroke-opacity:1; fill:none" points="257.366,1423.18 2352.76,1423.18 "/>
<polyline clip-path="url(#clip770)" style="stroke:#000000; stroke-linecap:round; stroke-linejoin:round; stroke-width:4; stroke-opacity:1; fill:none" points="257.366,1423.18 257.366,1404.28 "/>
<polyline clip-path="url(#clip770)" style="stroke:#000000; stroke-linecap:round; stroke-linejoin:round; stroke-width:4; stroke-opacity:1; fill:none" points="781.214,1423.18 781.214,1404.28 "/>
<polyline clip-path="url(#clip770)" style="stroke:#000000; stroke-linecap:round; stroke-linejoin:round; stroke-width:4; stroke-opacity:1; fill:none" points="1305.06,1423.18 1305.06,1404.28 "/>
<polyline clip-path="url(#clip770)" style="stroke:#000000; stroke-linecap:round; stroke-linejoin:round; stroke-width:4; stroke-opacity:1; fill:none" points="1828.91,1423.18 1828.91,1404.28 "/>
<polyline clip-path="url(#clip770)" style="stroke:#000000; stroke-linecap:round; stroke-linejoin:round; stroke-width:4; stroke-opacity:1; fill:none" points="2352.76,1423.18 2352.76,1404.28 "/>
<path clip-path="url(#clip770)" d="M203.894 1468.75 L233.57 1468.75 L233.57 1472.69 L203.894 1472.69 L203.894 1468.75 Z" fill="#000000" fill-rule="nonzero" fill-opacity="1" /><path clip-path="url(#clip770)" d="M244.473 1481.64 L252.111 1481.64 L252.111 1455.28 L243.801 1456.95 L243.801 1452.69 L252.065 1451.02 L256.741 1451.02 L256.741 1481.64 L264.38 1481.64 L264.38 1485.58 L244.473 1485.58 L244.473 1481.64 Z" fill="#000000" fill-rule="nonzero" fill-opacity="1" /><path clip-path="url(#clip770)" d="M273.824 1479.7 L278.709 1479.7 L278.709 1485.58 L273.824 1485.58 L273.824 1479.7 Z" fill="#000000" fill-rule="nonzero" fill-opacity="1" /><path clip-path="url(#clip770)" d="M298.894 1454.1 Q295.283 1454.1 293.454 1457.66 Q291.648 1461.2 291.648 1468.33 Q291.648 1475.44 293.454 1479.01 Q295.283 1482.55 298.894 1482.55 Q302.528 1482.55 304.333 1479.01 Q306.162 1475.44 306.162 1468.33 Q306.162 1461.2 304.333 1457.66 Q302.528 1454.1 298.894 1454.1 M298.894 1450.39 Q304.704 1450.39 307.759 1455 Q310.838 1459.58 310.838 1468.33 Q310.838 1477.06 307.759 1481.67 Q304.704 1486.25 298.894 1486.25 Q293.083 1486.25 290.005 1481.67 Q286.949 1477.06 286.949 1468.33 Q286.949 1459.58 290.005 1455 Q293.083 1450.39 298.894 1450.39 Z" fill="#000000" fill-rule="nonzero" fill-opacity="1" /><path clip-path="url(#clip770)" d="M728.239 1468.75 L757.915 1468.75 L757.915 1472.69 L728.239 1472.69 L728.239 1468.75 Z" fill="#000000" fill-rule="nonzero" fill-opacity="1" /><path clip-path="url(#clip770)" d="M778.008 1454.1 Q774.396 1454.1 772.568 1457.66 Q770.762 1461.2 770.762 1468.33 Q770.762 1475.44 772.568 1479.01 Q774.396 1482.55 778.008 1482.55 Q781.642 1482.55 783.447 1479.01 Q785.276 1475.44 785.276 1468.33 Q785.276 1461.2 783.447 1457.66 Q781.642 1454.1 778.008 1454.1 M778.008 1450.39 Q783.818 1450.39 786.873 1455 Q789.952 1459.58 789.952 1468.33 Q789.952 1477.06 786.873 1481.67 Q783.818 1486.25 778.008 1486.25 Q772.197 1486.25 769.119 1481.67 Q766.063 1477.06 766.063 1468.33 Q766.063 1459.58 769.119 1455 Q772.197 1450.39 778.008 1450.39 Z" fill="#000000" fill-rule="nonzero" fill-opacity="1" /><path clip-path="url(#clip770)" d="M798.169 1479.7 L803.054 1479.7 L803.054 1485.58 L798.169 1485.58 L798.169 1479.7 Z" fill="#000000" fill-rule="nonzero" fill-opacity="1" /><path clip-path="url(#clip770)" d="M813.285 1451.02 L831.641 1451.02 L831.641 1454.96 L817.567 1454.96 L817.567 1463.43 Q818.586 1463.08 819.605 1462.92 Q820.623 1462.73 821.642 1462.73 Q827.429 1462.73 830.808 1465.9 Q834.188 1469.08 834.188 1474.49 Q834.188 1480.07 830.716 1483.17 Q827.243 1486.25 820.924 1486.25 Q818.748 1486.25 816.48 1485.88 Q814.234 1485.51 811.827 1484.77 L811.827 1480.07 Q813.91 1481.2 816.132 1481.76 Q818.355 1482.32 820.831 1482.32 Q824.836 1482.32 827.174 1480.21 Q829.512 1478.1 829.512 1474.49 Q829.512 1470.88 827.174 1468.77 Q824.836 1466.67 820.831 1466.67 Q818.956 1466.67 817.081 1467.08 Q815.23 1467.5 813.285 1468.38 L813.285 1451.02 Z" fill="#000000" fill-rule="nonzero" fill-opacity="1" /><path clip-path="url(#clip770)" d="M1282.45 1454.1 Q1278.83 1454.1 1277.01 1457.66 Q1275.2 1461.2 1275.2 1468.33 Q1275.2 1475.44 1277.01 1479.01 Q1278.83 1482.55 1282.45 1482.55 Q1286.08 1482.55 1287.89 1479.01 Q1289.71 1475.44 1289.71 1468.33 Q1289.71 1461.2 1287.89 1457.66 Q1286.08 1454.1 1282.45 1454.1 M1282.45 1450.39 Q1288.26 1450.39 1291.31 1455 Q1294.39 1459.58 1294.39 1468.33 Q1294.39 1477.06 1291.31 1481.67 Q1288.26 1486.25 1282.45 1486.25 Q1276.64 1486.25 1273.56 1481.67 Q1270.5 1477.06 1270.5 1468.33 Q1270.5 1459.58 1273.56 1455 Q1276.64 1450.39 1282.45 1450.39 Z" fill="#000000" fill-rule="nonzero" fill-opacity="1" /><path clip-path="url(#clip770)" d="M1302.61 1479.7 L1307.49 1479.7 L1307.49 1485.58 L1302.61 1485.58 L1302.61 1479.7 Z" fill="#000000" fill-rule="nonzero" fill-opacity="1" /><path clip-path="url(#clip770)" d="M1327.68 1454.1 Q1324.07 1454.1 1322.24 1457.66 Q1320.43 1461.2 1320.43 1468.33 Q1320.43 1475.44 1322.24 1479.01 Q1324.07 1482.55 1327.68 1482.55 Q1331.31 1482.55 1333.12 1479.01 Q1334.95 1475.44 1334.95 1468.33 Q1334.95 1461.2 1333.12 1457.66 Q1331.31 1454.1 1327.68 1454.1 M1327.68 1450.39 Q1333.49 1450.39 1336.54 1455 Q1339.62 1459.58 1339.62 1468.33 Q1339.62 1477.06 1336.54 1481.67 Q1333.49 1486.25 1327.68 1486.25 Q1321.87 1486.25 1318.79 1481.67 Q1315.73 1477.06 1315.73 1468.33 Q1315.73 1459.58 1318.79 1455 Q1321.87 1450.39 1327.68 1450.39 Z" fill="#000000" fill-rule="nonzero" fill-opacity="1" /><path clip-path="url(#clip770)" d="M1806.79 1454.1 Q1803.18 1454.1 1801.35 1457.66 Q1799.55 1461.2 1799.55 1468.33 Q1799.55 1475.44 1801.35 1479.01 Q1803.18 1482.55 1806.79 1482.55 Q1810.42 1482.55 1812.23 1479.01 Q1814.06 1475.44 1814.06 1468.33 Q1814.06 1461.2 1812.23 1457.66 Q1810.42 1454.1 1806.79 1454.1 M1806.79 1450.39 Q1812.6 1450.39 1815.66 1455 Q1818.73 1459.58 1818.73 1468.33 Q1818.73 1477.06 1815.66 1481.67 Q1812.6 1486.25 1806.79 1486.25 Q1800.98 1486.25 1797.9 1481.67 Q1794.85 1477.06 1794.85 1468.33 Q1794.85 1459.58 1797.9 1455 Q1800.98 1450.39 1806.79 1450.39 Z" fill="#000000" fill-rule="nonzero" fill-opacity="1" /><path clip-path="url(#clip770)" d="M1826.95 1479.7 L1831.84 1479.7 L1831.84 1485.58 L1826.95 1485.58 L1826.95 1479.7 Z" fill="#000000" fill-rule="nonzero" fill-opacity="1" /><path clip-path="url(#clip770)" d="M1842.07 1451.02 L1860.42 1451.02 L1860.42 1454.96 L1846.35 1454.96 L1846.35 1463.43 Q1847.37 1463.08 1848.39 1462.92 Q1849.41 1462.73 1850.42 1462.73 Q1856.21 1462.73 1859.59 1465.9 Q1862.97 1469.08 1862.97 1474.49 Q1862.97 1480.07 1859.5 1483.17 Q1856.03 1486.25 1849.71 1486.25 Q1847.53 1486.25 1845.26 1485.88 Q1843.02 1485.51 1840.61 1484.77 L1840.61 1480.07 Q1842.69 1481.2 1844.92 1481.76 Q1847.14 1482.32 1849.61 1482.32 Q1853.62 1482.32 1855.96 1480.21 Q1858.29 1478.1 1858.29 1474.49 Q1858.29 1470.88 1855.96 1468.77 Q1853.62 1466.67 1849.61 1466.67 Q1847.74 1466.67 1845.86 1467.08 Q1844.01 1467.5 1842.07 1468.38 L1842.07 1451.02 Z" fill="#000000" fill-rule="nonzero" fill-opacity="1" /><path clip-path="url(#clip770)" d="M2319.91 1481.64 L2327.55 1481.64 L2327.55 1455.28 L2319.24 1456.95 L2319.24 1452.69 L2327.5 1451.02 L2332.18 1451.02 L2332.18 1481.64 L2339.82 1481.64 L2339.82 1485.58 L2319.91 1485.58 L2319.91 1481.64 Z" fill="#000000" fill-rule="nonzero" fill-opacity="1" /><path clip-path="url(#clip770)" d="M2349.26 1479.7 L2354.14 1479.7 L2354.14 1485.58 L2349.26 1485.58 L2349.26 1479.7 Z" fill="#000000" fill-rule="nonzero" fill-opacity="1" /><path clip-path="url(#clip770)" d="M2374.33 1454.1 Q2370.72 1454.1 2368.89 1457.66 Q2367.08 1461.2 2367.08 1468.33 Q2367.08 1475.44 2368.89 1479.01 Q2370.72 1482.55 2374.33 1482.55 Q2377.96 1482.55 2379.77 1479.01 Q2381.6 1475.44 2381.6 1468.33 Q2381.6 1461.2 2379.77 1457.66 Q2377.96 1454.1 2374.33 1454.1 M2374.33 1450.39 Q2380.14 1450.39 2383.2 1455 Q2386.27 1459.58 2386.27 1468.33 Q2386.27 1477.06 2383.2 1481.67 Q2380.14 1486.25 2374.33 1486.25 Q2368.52 1486.25 2365.44 1481.67 Q2362.39 1477.06 2362.39 1468.33 Q2362.39 1459.58 2365.44 1455 Q2368.52 1450.39 2374.33 1450.39 Z" fill="#000000" fill-rule="nonzero" fill-opacity="1" /><path clip-path="url(#clip770)" d="M1321.68 1532.4 L1308.78 1549.74 L1322.34 1568.04 L1315.44 1568.04 L1305.06 1554.04 L1294.68 1568.04 L1287.78 1568.04 L1301.62 1549.39 L1288.96 1532.4 L1295.86 1532.4 L1305.32 1545.1 L1314.77 1532.4 L1321.68 1532.4 Z" fill="#000000" fill-rule="nonzero" fill-opacity="1" /><polyline clip-path="url(#clip772)" style="stroke:#000000; stroke-linecap:round; stroke-linejoin:round; stroke-width:2; stroke-opacity:0.1; fill:none" points="257.366,1222.88 2352.76,1222.88 "/>
<polyline clip-path="url(#clip772)" style="stroke:#000000; stroke-linecap:round; stroke-linejoin:round; stroke-width:2; stroke-opacity:0.1; fill:none" points="257.366,979.045 2352.76,979.045 "/>
<polyline clip-path="url(#clip772)" style="stroke:#000000; stroke-linecap:round; stroke-linejoin:round; stroke-width:2; stroke-opacity:0.1; fill:none" points="257.366,735.212 2352.76,735.212 "/>
<polyline clip-path="url(#clip772)" style="stroke:#000000; stroke-linecap:round; stroke-linejoin:round; stroke-width:2; stroke-opacity:0.1; fill:none" points="257.366,491.379 2352.76,491.379 "/>
<polyline clip-path="url(#clip772)" style="stroke:#000000; stroke-linecap:round; stroke-linejoin:round; stroke-width:2; stroke-opacity:0.1; fill:none" points="257.366,247.547 2352.76,247.547 "/>
<polyline clip-path="url(#clip770)" style="stroke:#000000; stroke-linecap:round; stroke-linejoin:round; stroke-width:4; stroke-opacity:1; fill:none" points="257.366,1423.18 257.366,47.2441 "/>
<polyline clip-path="url(#clip770)" style="stroke:#000000; stroke-linecap:round; stroke-linejoin:round; stroke-width:4; stroke-opacity:1; fill:none" points="257.366,1222.88 276.264,1222.88 "/>
<polyline clip-path="url(#clip770)" style="stroke:#000000; stroke-linecap:round; stroke-linejoin:round; stroke-width:4; stroke-opacity:1; fill:none" points="257.366,979.045 276.264,979.045 "/>
<polyline clip-path="url(#clip770)" style="stroke:#000000; stroke-linecap:round; stroke-linejoin:round; stroke-width:4; stroke-opacity:1; fill:none" points="257.366,735.212 276.264,735.212 "/>
<polyline clip-path="url(#clip770)" style="stroke:#000000; stroke-linecap:round; stroke-linejoin:round; stroke-width:4; stroke-opacity:1; fill:none" points="257.366,491.379 276.264,491.379 "/>
<polyline clip-path="url(#clip770)" style="stroke:#000000; stroke-linecap:round; stroke-linejoin:round; stroke-width:4; stroke-opacity:1; fill:none" points="257.366,247.547 276.264,247.547 "/>
<path clip-path="url(#clip770)" d="M114.26 1223.33 L143.936 1223.33 L143.936 1227.26 L114.26 1227.26 L114.26 1223.33 Z" fill="#000000" fill-rule="nonzero" fill-opacity="1" /><path clip-path="url(#clip770)" d="M164.028 1208.68 Q160.417 1208.68 158.589 1212.24 Q156.783 1215.78 156.783 1222.91 Q156.783 1230.02 158.589 1233.58 Q160.417 1237.13 164.028 1237.13 Q167.663 1237.13 169.468 1233.58 Q171.297 1230.02 171.297 1222.91 Q171.297 1215.78 169.468 1212.24 Q167.663 1208.68 164.028 1208.68 M164.028 1204.97 Q169.839 1204.97 172.894 1209.58 Q175.973 1214.16 175.973 1222.91 Q175.973 1231.64 172.894 1236.25 Q169.839 1240.83 164.028 1240.83 Q158.218 1240.83 155.14 1236.25 Q152.084 1231.64 152.084 1222.91 Q152.084 1214.16 155.14 1209.58 Q158.218 1204.97 164.028 1204.97 Z" fill="#000000" fill-rule="nonzero" fill-opacity="1" /><path clip-path="url(#clip770)" d="M184.19 1234.28 L189.075 1234.28 L189.075 1240.16 L184.19 1240.16 L184.19 1234.28 Z" fill="#000000" fill-rule="nonzero" fill-opacity="1" /><path clip-path="url(#clip770)" d="M209.838 1221.01 Q206.69 1221.01 204.838 1223.17 Q203.01 1225.32 203.01 1229.07 Q203.01 1232.8 204.838 1234.97 Q206.69 1237.13 209.838 1237.13 Q212.986 1237.13 214.815 1234.97 Q216.667 1232.8 216.667 1229.07 Q216.667 1225.32 214.815 1223.17 Q212.986 1221.01 209.838 1221.01 M219.121 1206.36 L219.121 1210.62 Q217.361 1209.79 215.556 1209.35 Q213.774 1208.91 212.014 1208.91 Q207.385 1208.91 204.931 1212.03 Q202.5 1215.16 202.153 1221.48 Q203.519 1219.46 205.579 1218.4 Q207.639 1217.31 210.116 1217.31 Q215.324 1217.31 218.334 1220.48 Q221.366 1223.63 221.366 1229.07 Q221.366 1234.39 218.218 1237.61 Q215.07 1240.83 209.838 1240.83 Q203.843 1240.83 200.672 1236.25 Q197.5 1231.64 197.5 1222.91 Q197.5 1214.72 201.389 1209.86 Q205.278 1204.97 211.829 1204.97 Q213.588 1204.97 215.371 1205.32 Q217.176 1205.67 219.121 1206.36 Z" fill="#000000" fill-rule="nonzero" fill-opacity="1" /><path clip-path="url(#clip770)" d="M115.07 979.496 L144.746 979.496 L144.746 983.431 L115.07 983.431 L115.07 979.496 Z" fill="#000000" fill-rule="nonzero" fill-opacity="1" /><path clip-path="url(#clip770)" d="M164.839 964.843 Q161.227 964.843 159.399 968.408 Q157.593 971.95 157.593 979.079 Q157.593 986.186 159.399 989.751 Q161.227 993.292 164.839 993.292 Q168.473 993.292 170.278 989.751 Q172.107 986.186 172.107 979.079 Q172.107 971.95 170.278 968.408 Q168.473 964.843 164.839 964.843 M164.839 961.14 Q170.649 961.14 173.704 965.746 Q176.783 970.329 176.783 979.079 Q176.783 987.806 173.704 992.413 Q170.649 996.996 164.839 996.996 Q159.028 996.996 155.95 992.413 Q152.894 987.806 152.894 979.079 Q152.894 970.329 155.95 965.746 Q159.028 961.14 164.839 961.14 Z" fill="#000000" fill-rule="nonzero" fill-opacity="1" /><path clip-path="url(#clip770)" d="M185.001 990.445 L189.885 990.445 L189.885 996.325 L185.001 996.325 L185.001 990.445 Z" fill="#000000" fill-rule="nonzero" fill-opacity="1" /><path clip-path="url(#clip770)" d="M214.236 977.691 Q217.593 978.408 219.468 980.677 Q221.366 982.945 221.366 986.278 Q221.366 991.394 217.848 994.195 Q214.329 996.996 207.848 996.996 Q205.672 996.996 203.357 996.556 Q201.065 996.14 198.612 995.283 L198.612 990.769 Q200.556 991.903 202.871 992.482 Q205.186 993.061 207.709 993.061 Q212.107 993.061 214.399 991.325 Q216.713 989.589 216.713 986.278 Q216.713 983.223 214.561 981.51 Q212.431 979.774 208.612 979.774 L204.584 979.774 L204.584 975.931 L208.797 975.931 Q212.246 975.931 214.074 974.566 Q215.903 973.177 215.903 970.584 Q215.903 967.922 214.005 966.51 Q212.13 965.075 208.612 965.075 Q206.69 965.075 204.491 965.492 Q202.292 965.908 199.653 966.788 L199.653 962.621 Q202.315 961.88 204.63 961.51 Q206.968 961.14 209.028 961.14 Q214.352 961.14 217.454 963.57 Q220.556 965.978 220.556 970.098 Q220.556 972.968 218.912 974.959 Q217.269 976.927 214.236 977.691 Z" fill="#000000" fill-rule="nonzero" fill-opacity="1" /><path clip-path="url(#clip770)" d="M164.19 721.011 Q160.579 721.011 158.751 724.575 Q156.945 728.117 156.945 735.247 Q156.945 742.353 158.751 745.918 Q160.579 749.46 164.19 749.46 Q167.825 749.46 169.63 745.918 Q171.459 742.353 171.459 735.247 Q171.459 728.117 169.63 724.575 Q167.825 721.011 164.19 721.011 M164.19 717.307 Q170.001 717.307 173.056 721.913 Q176.135 726.497 176.135 735.247 Q176.135 743.973 173.056 748.58 Q170.001 753.163 164.19 753.163 Q158.38 753.163 155.302 748.58 Q152.246 743.973 152.246 735.247 Q152.246 726.497 155.302 721.913 Q158.38 717.307 164.19 717.307 Z" fill="#000000" fill-rule="nonzero" fill-opacity="1" /><path clip-path="url(#clip770)" d="M184.352 746.612 L189.237 746.612 L189.237 752.492 L184.352 752.492 L184.352 746.612 Z" fill="#000000" fill-rule="nonzero" fill-opacity="1" /><path clip-path="url(#clip770)" d="M209.422 721.011 Q205.811 721.011 203.982 724.575 Q202.176 728.117 202.176 735.247 Q202.176 742.353 203.982 745.918 Q205.811 749.46 209.422 749.46 Q213.056 749.46 214.861 745.918 Q216.69 742.353 216.69 735.247 Q216.69 728.117 214.861 724.575 Q213.056 721.011 209.422 721.011 M209.422 717.307 Q215.232 717.307 218.287 721.913 Q221.366 726.497 221.366 735.247 Q221.366 743.973 218.287 748.58 Q215.232 753.163 209.422 753.163 Q203.612 753.163 200.533 748.58 Q197.477 743.973 197.477 735.247 Q197.477 726.497 200.533 721.913 Q203.612 717.307 209.422 717.307 Z" fill="#000000" fill-rule="nonzero" fill-opacity="1" /><path clip-path="url(#clip770)" d="M164.839 477.178 Q161.227 477.178 159.399 480.743 Q157.593 484.284 157.593 491.414 Q157.593 498.52 159.399 502.085 Q161.227 505.627 164.839 505.627 Q168.473 505.627 170.278 502.085 Q172.107 498.52 172.107 491.414 Q172.107 484.284 170.278 480.743 Q168.473 477.178 164.839 477.178 M164.839 473.474 Q170.649 473.474 173.704 478.081 Q176.783 482.664 176.783 491.414 Q176.783 500.141 173.704 504.747 Q170.649 509.331 164.839 509.331 Q159.028 509.331 155.95 504.747 Q152.894 500.141 152.894 491.414 Q152.894 482.664 155.95 478.081 Q159.028 473.474 164.839 473.474 Z" fill="#000000" fill-rule="nonzero" fill-opacity="1" /><path clip-path="url(#clip770)" d="M185.001 502.78 L189.885 502.78 L189.885 508.659 L185.001 508.659 L185.001 502.78 Z" fill="#000000" fill-rule="nonzero" fill-opacity="1" /><path clip-path="url(#clip770)" d="M214.236 490.025 Q217.593 490.743 219.468 493.011 Q221.366 495.28 221.366 498.613 Q221.366 503.729 217.848 506.53 Q214.329 509.331 207.848 509.331 Q205.672 509.331 203.357 508.891 Q201.065 508.474 198.612 507.618 L198.612 503.104 Q200.556 504.238 202.871 504.817 Q205.186 505.395 207.709 505.395 Q212.107 505.395 214.399 503.659 Q216.713 501.923 216.713 498.613 Q216.713 495.557 214.561 493.845 Q212.431 492.108 208.612 492.108 L204.584 492.108 L204.584 488.266 L208.797 488.266 Q212.246 488.266 214.074 486.9 Q215.903 485.511 215.903 482.919 Q215.903 480.257 214.005 478.845 Q212.13 477.409 208.612 477.409 Q206.69 477.409 204.491 477.826 Q202.292 478.243 199.653 479.122 L199.653 474.956 Q202.315 474.215 204.63 473.845 Q206.968 473.474 209.028 473.474 Q214.352 473.474 217.454 475.905 Q220.556 478.312 220.556 482.433 Q220.556 485.303 218.912 487.294 Q217.269 489.261 214.236 490.025 Z" fill="#000000" fill-rule="nonzero" fill-opacity="1" /><path clip-path="url(#clip770)" d="M164.028 233.345 Q160.417 233.345 158.589 236.91 Q156.783 240.452 156.783 247.581 Q156.783 254.688 158.589 258.252 Q160.417 261.794 164.028 261.794 Q167.663 261.794 169.468 258.252 Q171.297 254.688 171.297 247.581 Q171.297 240.452 169.468 236.91 Q167.663 233.345 164.028 233.345 M164.028 229.642 Q169.839 229.642 172.894 234.248 Q175.973 238.831 175.973 247.581 Q175.973 256.308 172.894 260.915 Q169.839 265.498 164.028 265.498 Q158.218 265.498 155.14 260.915 Q152.084 256.308 152.084 247.581 Q152.084 238.831 155.14 234.248 Q158.218 229.642 164.028 229.642 Z" fill="#000000" fill-rule="nonzero" fill-opacity="1" /><path clip-path="url(#clip770)" d="M184.19 258.947 L189.075 258.947 L189.075 264.827 L184.19 264.827 L184.19 258.947 Z" fill="#000000" fill-rule="nonzero" fill-opacity="1" /><path clip-path="url(#clip770)" d="M209.838 245.683 Q206.69 245.683 204.838 247.836 Q203.01 249.989 203.01 253.739 Q203.01 257.465 204.838 259.641 Q206.69 261.794 209.838 261.794 Q212.986 261.794 214.815 259.641 Q216.667 257.465 216.667 253.739 Q216.667 249.989 214.815 247.836 Q212.986 245.683 209.838 245.683 M219.121 231.03 L219.121 235.29 Q217.361 234.456 215.556 234.017 Q213.774 233.577 212.014 233.577 Q207.385 233.577 204.931 236.702 Q202.5 239.827 202.153 246.146 Q203.519 244.132 205.579 243.067 Q207.639 241.979 210.116 241.979 Q215.324 241.979 218.334 245.151 Q221.366 248.299 221.366 253.739 Q221.366 259.063 218.218 262.28 Q215.07 265.498 209.838 265.498 Q203.843 265.498 200.672 260.915 Q197.5 256.308 197.5 247.581 Q197.5 239.387 201.389 234.526 Q205.278 229.642 211.829 229.642 Q213.588 229.642 215.371 229.989 Q217.176 230.336 219.121 231.03 Z" fill="#000000" fill-rule="nonzero" fill-opacity="1" /><path clip-path="url(#clip770)" d="M14.479 776.096 L27.6241 776.096 Q27.6241 769.762 32.4939 765.529 Q37.4592 761.168 46.212 761.168 Q54.9649 761.168 59.9301 765.529 Q64.7999 769.762 64.7999 776.096 L77.5631 776.096 L77.5631 781.92 L64.7999 781.92 Q64.7999 788.254 59.9301 792.519 Q54.9649 796.848 46.212 796.848 Q37.4592 796.848 32.4939 792.519 Q27.6241 788.254 27.6241 781.92 L14.479 781.92 L14.479 776.096 M59.58 776.096 Q59.58 772.499 56.3017 770.048 Q52.6414 767.375 46.212 767.343 Q39.8463 767.311 36.1224 770.048 Q32.844 772.499 32.844 776.096 L59.58 776.096 M59.58 781.92 L32.844 781.92 Q32.844 785.517 36.1224 787.936 Q39.8463 790.705 46.212 790.673 Q52.6414 790.641 56.3017 787.936 Q59.58 785.517 59.58 781.92 Z" fill="#000000" fill-rule="nonzero" fill-opacity="1" /><path clip-path="url(#clip770)" d="M14.5426 737.201 Q21.8632 741.466 29.0246 743.535 Q36.186 745.604 43.5384 745.604 Q50.8908 745.604 58.1159 743.535 Q65.3091 741.434 72.5979 737.201 L72.5979 742.294 Q65.1182 747.068 57.8931 749.455 Q50.668 751.811 43.5384 751.811 Q36.4406 751.811 29.2474 749.455 Q22.0542 747.1 14.5426 742.294 L14.5426 737.201 Z" fill="#000000" fill-rule="nonzero" fill-opacity="1" /><path clip-path="url(#clip770)" d="M28.3562 696.206 L45.7028 709.097 L64.0042 695.538 L64.0042 702.444 L49.9996 712.821 L64.0042 723.197 L64.0042 730.103 L45.3526 716.258 L28.3562 728.926 L28.3562 722.019 L41.0558 712.566 L28.3562 703.113 L28.3562 696.206 Z" fill="#000000" fill-rule="nonzero" fill-opacity="1" /><path clip-path="url(#clip770)" d="M14.5426 688.185 L14.5426 683.093 Q22.0542 678.318 29.2474 675.963 Q36.4406 673.576 43.5384 673.576 Q50.668 673.576 57.8931 675.963 Q65.1182 678.318 72.5979 683.093 L72.5979 688.185 Q65.3091 683.952 58.1159 681.883 Q50.8908 679.783 43.5384 679.783 Q36.186 679.783 29.0246 681.883 Q21.8632 683.952 14.5426 688.185 Z" fill="#000000" fill-rule="nonzero" fill-opacity="1" /><polyline clip-path="url(#clip772)" style="stroke:#009af9; stroke-linecap:round; stroke-linejoin:round; stroke-width:4; stroke-opacity:1; fill:none" points="257.366,735.212 278.532,731.538 299.697,734.843 320.863,745.125 342.028,760.526 363.194,778.397 384.359,798.717 405.525,821.526 426.69,846.901 447.856,874.845 469.022,905.011 490.187,936.463 511.353,969.145 532.518,1002.85 553.684,1036.82 574.849,1070.96 596.015,1105.12 617.18,1138.46 638.346,1170.85 659.512,1202.19 680.677,1231.75 701.843,1259.35 723.008,1284.96 744.174,1307.95 765.339,1328.15 786.505,1345.54 807.67,1359.7 828.836,1370.45 850.002,1377.8 871.167,1381.51 892.333,1381.47 913.498,1377.68 934.664,1370.09 955.829,1358.69 976.995,1343.47 998.16,1324.53 1019.33,1301.99 1040.49,1275.86 1061.66,1246.32 1082.82,1213.65 1103.99,1177.88 1125.15,1139.21 1146.32,1098.12 1167.48,1054.63 1188.65,1008.96 1209.82,961.722 1230.98,912.975 1252.15,862.89 1273.31,812.207 1294.48,761.006 1315.64,709.418 1336.81,658.217 1357.97,607.534 1379.14,557.449 1400.31,508.702 1421.47,461.468 1442.64,415.79 1463.8,372.303 1484.97,331.215 1506.13,292.545 1527.3,256.77 1548.46,224.108 1569.63,194.562 1590.8,168.429 1611.96,145.894 1633.13,126.957 1654.29,111.736 1675.46,100.333 1696.62,92.748 1717.79,88.9538 1738.95,88.9138 1760.12,92.628 1781.29,99.9721 1802.45,110.725 1823.62,124.884 1844.78,142.274 1865.95,162.476 1887.11,185.468 1908.28,211.071 1929.44,238.675 1950.61,268.229 1971.78,299.576 1992.94,331.966 2014.11,365.304 2035.27,399.466 2056.44,433.607 2077.6,467.57 2098.77,501.279 2119.93,533.961 2141.1,565.413 2162.27,595.579 2183.43,623.523 2204.6,648.898 2225.76,671.707 2246.93,692.027 2268.09,709.898 2289.26,725.299 2310.42,735.581 2331.59,738.886 2352.76,735.212 "/>
<polyline clip-path="url(#clip772)" style="stroke:#e26f46; stroke-linecap:round; stroke-linejoin:round; stroke-width:4; stroke-opacity:1; fill:none" points="257.366,735.212 278.532,737.274 299.697,743.358 320.863,753.292 342.028,766.869 363.194,783.859 384.359,804.005 405.525,827.026 426.69,852.622 447.856,880.475 469.022,910.252 490.187,941.609 511.353,974.191 532.518,1007.64 553.684,1041.59 574.849,1075.67 596.015,1109.53 617.18,1142.8 638.346,1175.14 659.512,1206.21 680.677,1235.68 701.843,1263.24 723.008,1288.59 744.174,1311.47 765.339,1331.62 786.505,1348.8 807.67,1362.82 828.836,1373.5 850.002,1380.68 871.167,1384.24 892.333,1384.09 913.498,1380.17 934.664,1372.43 955.829,1360.89 976.995,1345.55 998.16,1326.49 1019.33,1303.78 1040.49,1277.53 1061.66,1247.9 1082.82,1215.03 1103.99,1179.13 1125.15,1140.41 1146.32,1099.1 1167.48,1055.46 1188.65,1009.77 1209.82,962.305 1230.98,913.38 1252.15,863.304 1273.31,812.4 1294.48,760.997 1315.64,709.427 1336.81,658.024 1357.97,607.12 1379.14,557.044 1400.31,508.119 1421.47,460.658 1442.64,414.964 1463.8,371.327 1484.97,330.018 1506.13,291.296 1527.3,255.394 1548.46,222.529 1569.63,192.89 1590.8,166.645 1611.96,143.934 1633.13,124.87 1654.29,109.537 1675.46,97.9909 1696.62,90.258 1717.79,86.3342 1738.95,86.1857 1760.12,89.7484 1781.29,96.9287 1802.45,107.604 1823.62,121.623 1844.78,138.808 1865.95,158.953 1887.11,181.83 1908.28,207.185 1929.44,234.744 1950.61,264.213 1971.78,295.282 1992.94,327.623 2014.11,360.897 2035.27,394.755 2056.44,428.839 2077.6,462.786 2098.77,496.233 2119.93,528.815 2141.1,560.172 2162.27,589.949 2183.43,617.802 2204.6,643.398 2225.76,666.419 2246.93,686.565 2268.09,703.555 2289.26,717.132 2310.42,727.065 2331.59,733.15 2352.76,735.212 "/>
<path clip-path="url(#clip770)" d="M327.212 248.629 L768.301 248.629 L768.301 93.1086 L327.212 93.1086  Z" fill="#ffffff" fill-rule="evenodd" fill-opacity="1"/>
<polyline clip-path="url(#clip770)" style="stroke:#000000; stroke-linecap:round; stroke-linejoin:round; stroke-width:4; stroke-opacity:1; fill:none" points="327.212,248.629 768.301,248.629 768.301,93.1086 327.212,93.1086 327.212,248.629 "/>
<polyline clip-path="url(#clip770)" style="stroke:#009af9; stroke-linecap:round; stroke-linejoin:round; stroke-width:4; stroke-opacity:1; fill:none" points="350.495,144.949 490.187,144.949 "/>
<path clip-path="url(#clip770)" d="M535.715 128.803 L535.715 133.363 Q533.052 132.09 530.691 131.465 Q528.33 130.84 526.131 130.84 Q522.312 130.84 520.228 132.321 Q518.168 133.803 518.168 136.534 Q518.168 138.826 519.534 140.007 Q520.923 141.164 524.766 141.882 L527.59 142.46 Q532.821 143.456 535.298 145.979 Q537.798 148.479 537.798 152.692 Q537.798 157.715 534.418 160.307 Q531.062 162.9 524.557 162.9 Q522.103 162.9 519.326 162.344 Q516.571 161.789 513.608 160.701 L513.608 155.886 Q516.455 157.483 519.187 158.293 Q521.918 159.104 524.557 159.104 Q528.562 159.104 530.738 157.53 Q532.914 155.956 532.914 153.039 Q532.914 150.493 531.34 149.057 Q529.789 147.622 526.224 146.905 L523.377 146.349 Q518.145 145.307 515.807 143.085 Q513.469 140.863 513.469 136.905 Q513.469 132.321 516.687 129.682 Q519.928 127.044 525.599 127.044 Q528.029 127.044 530.553 127.483 Q533.076 127.923 535.715 128.803 Z" fill="#000000" fill-rule="nonzero" fill-opacity="1" /><path clip-path="url(#clip770)" d="M554.951 139.289 Q551.525 139.289 549.534 141.974 Q547.543 144.636 547.543 149.289 Q547.543 153.942 549.511 156.627 Q551.501 159.289 554.951 159.289 Q558.353 159.289 560.344 156.604 Q562.335 153.918 562.335 149.289 Q562.335 144.682 560.344 141.997 Q558.353 139.289 554.951 139.289 M554.951 135.678 Q560.506 135.678 563.677 139.289 Q566.849 142.9 566.849 149.289 Q566.849 155.655 563.677 159.289 Q560.506 162.9 554.951 162.9 Q549.372 162.9 546.201 159.289 Q543.052 155.655 543.052 149.289 Q543.052 142.9 546.201 139.289 Q549.372 135.678 554.951 135.678 Z" fill="#000000" fill-rule="nonzero" fill-opacity="1" /><path clip-path="url(#clip770)" d="M573.909 126.21 L578.168 126.21 L578.168 162.229 L573.909 162.229 L573.909 126.21 Z" fill="#000000" fill-rule="nonzero" fill-opacity="1" /><path clip-path="url(#clip770)" d="M586.64 151.997 L586.64 136.303 L590.899 136.303 L590.899 151.835 Q590.899 155.516 592.335 157.368 Q593.77 159.196 596.64 159.196 Q600.089 159.196 602.08 156.997 Q604.094 154.798 604.094 151.002 L604.094 136.303 L608.353 136.303 L608.353 162.229 L604.094 162.229 L604.094 158.247 Q602.543 160.608 600.483 161.766 Q598.446 162.9 595.737 162.9 Q591.27 162.9 588.955 160.122 Q586.64 157.344 586.64 151.997 M597.358 135.678 L597.358 135.678 Z" fill="#000000" fill-rule="nonzero" fill-opacity="1" /><path clip-path="url(#clip770)" d="M621.339 128.942 L621.339 136.303 L630.112 136.303 L630.112 139.613 L621.339 139.613 L621.339 153.687 Q621.339 156.858 622.196 157.761 Q623.075 158.664 625.737 158.664 L630.112 158.664 L630.112 162.229 L625.737 162.229 Q620.807 162.229 618.932 160.4 Q617.057 158.548 617.057 153.687 L617.057 139.613 L613.932 139.613 L613.932 136.303 L617.057 136.303 L617.057 128.942 L621.339 128.942 Z" fill="#000000" fill-rule="nonzero" fill-opacity="1" /><path clip-path="url(#clip770)" d="M635.714 136.303 L639.973 136.303 L639.973 162.229 L635.714 162.229 L635.714 136.303 M635.714 126.21 L639.973 126.21 L639.973 131.604 L635.714 131.604 L635.714 126.21 Z" fill="#000000" fill-rule="nonzero" fill-opacity="1" /><path clip-path="url(#clip770)" d="M658.931 139.289 Q655.506 139.289 653.515 141.974 Q651.524 144.636 651.524 149.289 Q651.524 153.942 653.492 156.627 Q655.482 159.289 658.931 159.289 Q662.334 159.289 664.325 156.604 Q666.316 153.918 666.316 149.289 Q666.316 144.682 664.325 141.997 Q662.334 139.289 658.931 139.289 M658.931 135.678 Q664.487 135.678 667.658 139.289 Q670.83 142.9 670.83 149.289 Q670.83 155.655 667.658 159.289 Q664.487 162.9 658.931 162.9 Q653.353 162.9 650.181 159.289 Q647.033 155.655 647.033 149.289 Q647.033 142.9 650.181 139.289 Q653.353 135.678 658.931 135.678 Z" fill="#000000" fill-rule="nonzero" fill-opacity="1" /><path clip-path="url(#clip770)" d="M699.44 146.581 L699.44 162.229 L695.181 162.229 L695.181 146.719 Q695.181 143.039 693.746 141.21 Q692.311 139.382 689.441 139.382 Q685.991 139.382 684.001 141.581 Q682.01 143.78 682.01 147.576 L682.01 162.229 L677.728 162.229 L677.728 136.303 L682.01 136.303 L682.01 140.331 Q683.538 137.993 685.598 136.835 Q687.681 135.678 690.39 135.678 Q694.857 135.678 697.149 138.456 Q699.44 141.21 699.44 146.581 Z" fill="#000000" fill-rule="nonzero" fill-opacity="1" /><polyline clip-path="url(#clip770)" style="stroke:#e26f46; stroke-linecap:round; stroke-linejoin:round; stroke-width:4; stroke-opacity:1; fill:none" points="350.495,196.789 490.187,196.789 "/>
<path clip-path="url(#clip770)" d="M529.858 197.865 Q531.363 198.374 532.775 200.041 Q534.21 201.708 535.645 204.624 L540.39 214.069 L535.367 214.069 L530.946 205.203 Q529.233 201.731 527.613 200.596 Q526.015 199.462 523.238 199.462 L518.145 199.462 L518.145 214.069 L513.469 214.069 L513.469 179.509 L524.025 179.509 Q529.951 179.509 532.867 181.985 Q535.784 184.462 535.784 189.462 Q535.784 192.726 534.256 194.879 Q532.752 197.032 529.858 197.865 M518.145 183.351 L518.145 195.62 L524.025 195.62 Q527.404 195.62 529.117 194.069 Q530.853 192.495 530.853 189.462 Q530.853 186.43 529.117 184.902 Q527.404 183.351 524.025 183.351 L518.145 183.351 Z" fill="#000000" fill-rule="nonzero" fill-opacity="1" /><path clip-path="url(#clip770)" d="M566.27 200.041 L566.27 202.124 L546.687 202.124 Q546.964 206.522 549.326 208.837 Q551.71 211.129 555.946 211.129 Q558.4 211.129 560.691 210.527 Q563.006 209.925 565.275 208.721 L565.275 212.749 Q562.983 213.721 560.575 214.231 Q558.168 214.74 555.691 214.74 Q549.488 214.74 545.853 211.129 Q542.242 207.518 542.242 201.36 Q542.242 194.995 545.668 191.268 Q549.117 187.518 554.951 187.518 Q560.182 187.518 563.214 190.897 Q566.27 194.254 566.27 200.041 M562.011 198.791 Q561.964 195.296 560.043 193.212 Q558.145 191.129 554.997 191.129 Q551.432 191.129 549.279 193.143 Q547.15 195.157 546.826 198.814 L562.011 198.791 Z" fill="#000000" fill-rule="nonzero" fill-opacity="1" /><path clip-path="url(#clip770)" d="M586.386 178.05 L586.386 181.592 L582.311 181.592 Q580.02 181.592 579.117 182.518 Q578.237 183.444 578.237 185.851 L578.237 188.143 L585.251 188.143 L585.251 191.453 L578.237 191.453 L578.237 214.069 L573.955 214.069 L573.955 191.453 L569.881 191.453 L569.881 188.143 L573.955 188.143 L573.955 186.337 Q573.955 182.009 575.969 180.041 Q577.983 178.05 582.358 178.05 L586.386 178.05 Z" fill="#000000" fill-rule="nonzero" fill-opacity="1" /><path clip-path="url(#clip770)" d="M612.126 200.041 L612.126 202.124 L592.543 202.124 Q592.821 206.522 595.182 208.837 Q597.566 211.129 601.802 211.129 Q604.256 211.129 606.547 210.527 Q608.862 209.925 611.131 208.721 L611.131 212.749 Q608.839 213.721 606.432 214.231 Q604.024 214.74 601.547 214.74 Q595.344 214.74 591.71 211.129 Q588.098 207.518 588.098 201.36 Q588.098 194.995 591.524 191.268 Q594.973 187.518 600.807 187.518 Q606.038 187.518 609.071 190.897 Q612.126 194.254 612.126 200.041 M607.867 198.791 Q607.821 195.296 605.899 193.212 Q604.001 191.129 600.853 191.129 Q597.288 191.129 595.135 193.143 Q593.006 195.157 592.682 198.814 L607.867 198.791 Z" fill="#000000" fill-rule="nonzero" fill-opacity="1" /><path clip-path="url(#clip770)" d="M634.14 192.124 Q633.422 191.708 632.566 191.522 Q631.733 191.314 630.714 191.314 Q627.103 191.314 625.158 193.675 Q623.237 196.013 623.237 200.411 L623.237 214.069 L618.955 214.069 L618.955 188.143 L623.237 188.143 L623.237 192.171 Q624.58 189.809 626.733 188.675 Q628.885 187.518 631.964 187.518 Q632.404 187.518 632.936 187.587 Q633.469 187.634 634.117 187.749 L634.14 192.124 Z" fill="#000000" fill-rule="nonzero" fill-opacity="1" /><path clip-path="url(#clip770)" d="M659.742 200.041 L659.742 202.124 L640.158 202.124 Q640.436 206.522 642.797 208.837 Q645.182 211.129 649.418 211.129 Q651.871 211.129 654.163 210.527 Q656.478 209.925 658.746 208.721 L658.746 212.749 Q656.455 213.721 654.047 214.231 Q651.64 214.74 649.163 214.74 Q642.959 214.74 639.325 211.129 Q635.714 207.518 635.714 201.36 Q635.714 194.995 639.14 191.268 Q642.589 187.518 648.422 187.518 Q653.654 187.518 656.686 190.897 Q659.742 194.254 659.742 200.041 M655.482 198.791 Q655.436 195.296 653.515 193.212 Q651.617 191.129 648.469 191.129 Q644.904 191.129 642.751 193.143 Q640.621 195.157 640.297 198.814 L655.482 198.791 Z" fill="#000000" fill-rule="nonzero" fill-opacity="1" /><path clip-path="url(#clip770)" d="M688.283 198.421 L688.283 214.069 L684.024 214.069 L684.024 198.559 Q684.024 194.879 682.589 193.05 Q681.154 191.222 678.283 191.222 Q674.834 191.222 672.843 193.421 Q670.853 195.62 670.853 199.416 L670.853 214.069 L666.57 214.069 L666.57 188.143 L670.853 188.143 L670.853 192.171 Q672.38 189.833 674.441 188.675 Q676.524 187.518 679.232 187.518 Q683.7 187.518 685.991 190.296 Q688.283 193.05 688.283 198.421 Z" fill="#000000" fill-rule="nonzero" fill-opacity="1" /><path clip-path="url(#clip770)" d="M715.436 189.138 L715.436 193.12 Q713.63 192.124 711.802 191.638 Q709.996 191.129 708.144 191.129 Q704.001 191.129 701.709 193.768 Q699.417 196.384 699.417 201.129 Q699.417 205.874 701.709 208.513 Q704.001 211.129 708.144 211.129 Q709.996 211.129 711.802 210.643 Q713.63 210.133 715.436 209.138 L715.436 213.073 Q713.653 213.907 711.732 214.323 Q709.834 214.74 707.681 214.74 Q701.825 214.74 698.376 211.059 Q694.927 207.379 694.927 201.129 Q694.927 194.786 698.399 191.152 Q701.894 187.518 707.959 187.518 Q709.927 187.518 711.802 187.935 Q713.677 188.328 715.436 189.138 Z" fill="#000000" fill-rule="nonzero" fill-opacity="1" /><path clip-path="url(#clip770)" d="M745.019 200.041 L745.019 202.124 L725.436 202.124 Q725.714 206.522 728.075 208.837 Q730.459 211.129 734.695 211.129 Q737.149 211.129 739.44 210.527 Q741.755 209.925 744.024 208.721 L744.024 212.749 Q741.732 213.721 739.325 214.231 Q736.917 214.74 734.44 214.74 Q728.237 214.74 724.602 211.129 Q720.991 207.518 720.991 201.36 Q720.991 194.995 724.417 191.268 Q727.866 187.518 733.7 187.518 Q738.931 187.518 741.963 190.897 Q745.019 194.254 745.019 200.041 M740.76 198.791 Q740.713 195.296 738.792 193.212 Q736.894 191.129 733.746 191.129 Q730.181 191.129 728.028 193.143 Q725.899 195.157 725.575 198.814 L740.76 198.791 Z" fill="#000000" fill-rule="nonzero" fill-opacity="1" /></svg>
